<svg width="32" height="32" viewBox="0 0 32 32" fill="none" xmlns="http://www.w3.org/2000/svg">
<circle cx="16" cy="16" r="16" transform="rotate(90 16 16)" fill="#6C30EB"/>
<path d="M15.8302 23.1865C15.939 23.2309 16.0609 23.2309 16.1698 23.1865C16.2238 23.1637 16.2729 23.1308 16.3146 23.0896L19.8697 19.5345C20.0434 19.3608 20.0434 19.079 19.8697 18.9053C19.6959 18.7315 19.4142 18.7315 19.2404 18.9053L16.4444 21.7031L16.4444 9.44438C16.4444 9.19896 16.2454 9 16 9C15.7546 9 15.5556 9.19896 15.5556 9.44438L15.5556 21.7031L12.7596 18.9062C12.5858 18.7324 12.3041 18.7324 12.1303 18.9062C11.9566 19.0799 11.9566 19.3616 12.1303 19.5354L15.6854 23.0905C15.7271 23.1314 15.7763 23.1639 15.8302 23.1865Z" fill="#F5F3FF"/>
</svg>
