<svg width="31" height="32" viewBox="0 0 31 32" fill="none" xmlns="http://www.w3.org/2000/svg">
<circle cx="15.5" cy="16" r="15.5" fill="#6C30EB"/>
<path d="M22.4619 16.1644C22.5049 16.059 22.5049 15.941 22.4619 15.8356C22.4398 15.7832 22.408 15.7356 22.368 15.6952L18.9241 12.2512C18.7557 12.0829 18.4828 12.0829 18.3145 12.2512C18.1462 12.4196 18.1462 12.6925 18.3145 12.8608L21.0249 15.5695H9.14925C8.91149 15.5695 8.71875 15.7622 8.71875 16C8.71875 16.2378 8.91149 16.4305 9.14925 16.4305H21.0249L18.3153 19.1392C18.147 19.3075 18.147 19.5804 18.3153 19.7488C18.4837 19.9171 18.7566 19.9171 18.9249 19.7488L22.3689 16.3048C22.4085 16.2643 22.4401 16.2167 22.4619 16.1644Z" fill="white"/>
</svg>
