<svg width="31" height="31" viewBox="0 0 31 31" fill="none" xmlns="http://www.w3.org/2000/svg">
<circle cx="15.5" cy="15.5" r="15.5" fill="#6C30EB"/>
<path d="M22.4619 15.6644C22.5049 15.559 22.5049 15.441 22.4619 15.3356C22.4398 15.2832 22.408 15.2356 22.368 15.1952L18.9241 11.7512C18.7557 11.5829 18.4828 11.5829 18.3145 11.7512C18.1462 11.9196 18.1462 12.1925 18.3145 12.3608L21.0249 15.0695H9.14925C8.91149 15.0695 8.71875 15.2622 8.71875 15.5C8.71875 15.7378 8.91149 15.9305 9.14925 15.9305H21.0249L18.3153 18.6392C18.147 18.8075 18.147 19.0804 18.3153 19.2488C18.4837 19.4171 18.7566 19.4171 18.9249 19.2488L22.3689 15.8048C22.4085 15.7643 22.4401 15.7167 22.4619 15.6644Z" fill="white"/>
</svg>
