<svg width="28" height="28" viewBox="0 0 28 28" fill="none" xmlns="http://www.w3.org/2000/svg">
<circle cx="14" cy="14" r="14" fill="#00EAC5"/>
<path d="M17.7415 11.2681C17.9135 11.4457 18.0096 11.6832 18.0096 11.9304C18.0096 12.1776 17.9135 12.4151 17.7415 12.5927L13.6023 16.7319C13.4247 16.9039 13.1872 17 12.94 17C12.6928 17 12.4553 16.9039 12.2778 16.7319L10.2081 14.6623C10.0632 14.4808 9.98961 14.2526 10.0012 14.0207C10.0086 13.7905 10.1019 13.5715 10.2628 13.4068C10.4237 13.2421 10.6405 13.1436 10.8704 13.1308C11.1024 13.1192 11.3305 13.1928 11.512 13.3377L12.94 14.7554L16.417 11.2681C16.5946 11.0961 16.8321 11 17.0793 11C17.3265 11 17.564 11.0961 17.7415 11.2681Z" fill="#6C30EB"/>
</svg>
