<svg width="218" height="36" viewBox="0 0 218 36" fill="none" xmlns="http://www.w3.org/2000/svg">
<g clip-path="url(#clip0_2001_38890)">
<path d="M108.487 33.0976C108.487 33.3878 108.4 33.6714 108.239 33.9127C108.077 34.154 107.847 34.342 107.578 34.4531C107.308 34.5641 107.012 34.5931 106.727 34.5365C106.441 34.4799 106.178 34.3402 105.972 34.135C105.766 33.9299 105.626 33.6684 105.569 33.3839C105.512 33.0993 105.542 32.8043 105.653 32.5362C105.765 32.2681 105.953 32.039 106.196 31.8778C106.438 31.7166 106.723 31.6306 107.014 31.6306C107.405 31.6306 107.779 31.7851 108.055 32.0602C108.332 32.3354 108.487 32.7085 108.487 33.0976ZM108.225 33.0976C108.224 32.8584 108.152 32.6248 108.018 32.4262C107.884 32.2277 107.694 32.0732 107.472 31.9823C107.25 31.8914 107.006 31.8681 106.77 31.9155C106.535 31.9628 106.319 32.0786 106.149 32.2482C105.98 32.4179 105.865 32.6337 105.819 32.8684C105.773 33.1032 105.797 33.3463 105.89 33.567C105.982 33.7878 106.139 33.9762 106.339 34.1086C106.539 34.2409 106.774 34.3112 107.014 34.3105C107.174 34.3108 107.332 34.2795 107.479 34.2185C107.627 34.1576 107.76 34.0681 107.873 33.9554C107.986 33.8426 108.075 33.7088 108.135 33.5615C108.195 33.4143 108.226 33.2566 108.225 33.0976ZM107.276 33.2938L107.701 33.8431H107.319L106.916 33.3109H106.769V33.8431H106.452V32.388H107.161C107.276 32.3854 107.388 32.4254 107.475 32.5001C107.562 32.5749 107.618 32.6791 107.632 32.7927C107.646 32.9063 107.618 33.0211 107.552 33.1149C107.486 33.2087 107.388 33.2749 107.276 33.3006V33.2938ZM106.762 33.0652H107.067C107.252 33.0652 107.312 32.9902 107.312 32.8537C107.312 32.7172 107.252 32.6524 107.067 32.6524H106.762V33.0652Z" fill="#1F0742"/>
<path d="M22.3833 27.0843H17.0876V21.8096H15.2825V34.157H17.0876V28.8414H22.3833V34.157H24.1474V21.8096H22.3833V27.0843Z" fill="#1F0742"/>
<path d="M31.2071 21.8113L27.6772 25.3272V34.1587H29.443V28.8431H34.737V34.1587H36.5028V25.3255L32.9729 21.8113H31.2071ZM34.7781 27.086H29.4841V25.9823L32.1508 23.4064L34.7781 25.9823V27.086Z" fill="#1F0742"/>
<path d="M40.0737 21.8113V34.1587H47.1334L48.8975 32.3999V28.884L47.9949 27.985L48.8975 27.1321V23.5684L47.1334 21.8096L40.0737 21.8113ZM47.1334 31.5009L46.2292 32.3999H41.7984V28.884H46.2308L47.1351 29.783L47.1334 31.5009ZM47.1334 26.2262L46.2292 27.1269H41.7984V23.5684H46.2308L47.1351 24.4674L47.1334 26.2262Z" fill="#1F0742"/>
<path d="M51.8518 23.5684H53.6176V32.3982H51.8518V34.157H57.1475V32.3982H55.3817V23.5684H57.1475V21.8096H51.8518V23.5684Z" fill="#1F0742"/>
<path d="M60.1018 23.5684H63.6317V34.157H65.3975V23.5684H68.9684V21.8096H60.1018V23.5684Z" fill="#1F0742"/>
<path d="M74.3395 21.8113L70.8096 25.3272V34.1587H72.5754V28.8431H77.8693V34.1177H79.6488V25.3255L76.1104 21.8113H74.3395ZM77.8693 27.086H72.5754V25.9823L75.2421 23.4064L77.8693 25.9823V27.086Z" fill="#1F0742"/>
<path d="M94.8662 23.5684H98.3961V34.157H100.203V23.5684H103.733V21.8096H94.8662V23.5684Z" fill="#1F0742"/>
<path d="M90.23 30.6411L84.9755 21.7704H83.2114V34.157H84.9755V25.2863L90.23 34.157H91.9941V21.7704H90.23V30.6411Z" fill="#1F0742"/>
<path d="M0.998233 20.3375C0.934264 20.2974 0.862696 20.2708 0.787994 20.2594C0.713291 20.248 0.637029 20.2521 0.563956 20.2713C0.490883 20.2905 0.422558 20.3244 0.363208 20.371C0.303857 20.4176 0.254757 20.4759 0.21895 20.5422C0.181213 20.6103 0.158078 20.6855 0.151003 20.763C0.143928 20.8405 0.153068 20.9187 0.177847 20.9925L1.28595 22.6268C2.34932 24.1969 2.91744 26.0476 2.91744 27.9415C2.91744 29.8355 2.34932 31.6862 1.28595 33.2563L0.177847 34.8923C0.154543 35.0022 0.162968 35.1165 0.202141 35.2219C0.241314 35.3273 0.309633 35.4195 0.399209 35.4879C0.488785 35.5562 0.595971 35.5979 0.708339 35.6081C0.820707 35.6183 0.93367 35.5967 1.03419 35.5456L10.3101 28.5139C10.3869 28.4556 10.4512 28.3826 10.4991 28.2992C10.547 28.2157 10.5777 28.1235 10.5892 28.0281C10.6007 27.9326 10.5928 27.8358 10.5661 27.7435C10.5393 27.6511 10.4942 27.565 10.4335 27.4903L10.3101 27.3675L0.998233 20.3375Z" fill="#1F0742"/>
<path d="M163.603 18.5139C163.834 18.5139 164.021 18.3275 164.021 18.0976C164.021 17.8678 163.834 17.6814 163.603 17.6814C163.373 17.6814 163.186 17.8678 163.186 18.0976C163.186 18.3275 163.373 18.5139 163.603 18.5139Z" fill="#1F0742"/>
<path d="M169.352 18.6794C169.674 18.6794 169.936 18.4189 169.936 18.0976C169.936 17.7764 169.674 17.5159 169.352 17.5159C169.029 17.5159 168.768 17.7764 168.768 18.0976C168.768 18.4189 169.029 18.6794 169.352 18.6794Z" fill="#1F0742"/>
<path d="M175.106 18.8243C175.509 18.8243 175.836 18.499 175.836 18.0976C175.836 17.6963 175.509 17.3709 175.106 17.3709C174.703 17.3709 174.376 17.6963 174.376 18.0976C174.376 18.499 174.703 18.8243 175.106 18.8243Z" fill="#1F0742"/>
<path d="M180.841 18.9676C181.324 18.9676 181.715 18.5781 181.715 18.0976C181.715 17.6171 181.324 17.2276 180.841 17.2276C180.359 17.2276 179.968 17.6171 179.968 18.0976C179.968 18.5781 180.359 18.9676 180.841 18.9676Z" fill="#1F0742"/>
<path d="M203.828 19.5459C204.631 19.5459 205.282 18.8975 205.282 18.0976C205.282 17.2977 204.631 16.6493 203.828 16.6493C203.025 16.6493 202.374 17.2977 202.374 18.0976C202.374 18.8975 203.025 19.5459 203.828 19.5459Z" fill="#1F0742"/>
<path d="M186.591 19.1126C187.154 19.1126 187.61 18.6582 187.61 18.0976C187.61 17.537 187.154 17.0826 186.591 17.0826C186.028 17.0826 185.572 17.537 185.572 18.0976C185.572 18.6582 186.028 19.1126 186.591 19.1126Z" fill="#1F0742"/>
<path d="M198.085 19.4026C198.809 19.4026 199.395 18.8184 199.395 18.0976C199.395 17.3769 198.809 16.7926 198.085 16.7926C197.361 16.7926 196.775 17.3769 196.775 18.0976C196.775 18.8184 197.361 19.4026 198.085 19.4026Z" fill="#1F0742"/>
<path d="M192.337 19.2508C192.977 19.2508 193.495 18.7345 193.495 18.0976C193.495 17.4607 192.977 16.9444 192.337 16.9444C191.698 16.9444 191.18 17.4607 191.18 18.0976C191.18 18.7345 191.698 19.2508 192.337 19.2508Z" fill="#1F0742"/>
<path d="M171.449 28.7595C171.334 28.7599 171.219 28.7378 171.113 28.6942C171.006 28.6506 170.909 28.5866 170.827 28.5056C170.745 28.4247 170.68 28.3284 170.635 28.2224C170.591 28.1164 170.568 28.0027 170.567 27.8878C170.567 27.0829 170.246 26.311 169.675 25.7418C169.103 25.1727 168.328 24.853 167.52 24.853C166.712 24.853 165.937 25.1727 165.366 25.7418C164.794 26.311 164.473 27.0829 164.473 27.8878C164.473 28.1199 164.381 28.3425 164.216 28.5066C164.051 28.6707 163.828 28.7629 163.595 28.7629C163.362 28.7629 163.138 28.6707 162.973 28.5066C162.809 28.3425 162.716 28.1199 162.716 27.8878C162.716 26.6187 163.222 25.4016 164.123 24.5042C165.024 23.6068 166.246 23.1027 167.52 23.1027C168.794 23.1027 170.016 23.6068 170.917 24.5042C171.818 25.4016 172.324 26.6187 172.324 27.8878C172.323 28.1187 172.231 28.3399 172.067 28.5032C171.903 28.6665 171.681 28.7586 171.449 28.7595Z" fill="#1F0742"/>
<path d="M179.352 28.7595C179.12 28.7568 178.898 28.6633 178.735 28.4992C178.572 28.3351 178.48 28.1136 178.48 27.8827C178.489 27.4844 178.42 27.0881 178.276 26.7165C178.131 26.3449 177.915 26.0052 177.639 25.7169C177.363 25.4286 177.032 25.1973 176.667 25.0362C176.301 24.8751 175.907 24.7873 175.507 24.7779C175.107 24.7685 174.709 24.8376 174.336 24.9814C173.963 25.1251 173.622 25.3406 173.332 25.6156C173.043 25.8906 172.811 26.2197 172.649 26.5841C172.487 26.9485 172.399 27.3411 172.39 27.7394C172.39 27.7871 172.39 27.8349 172.39 27.8827C172.38 28.1083 172.283 28.3214 172.119 28.4775C171.955 28.6337 171.737 28.7208 171.51 28.7208C171.283 28.7208 171.065 28.6337 170.901 28.4775C170.738 28.3214 170.641 28.1083 170.631 27.8827C170.631 26.6136 171.137 25.3965 172.038 24.4991C172.939 23.6017 174.161 23.0976 175.435 23.0976C176.709 23.0976 177.931 23.6017 178.832 24.4991C179.733 25.3965 180.239 26.6136 180.239 27.8827C180.239 28.1146 180.147 28.3371 179.982 28.5015C179.818 28.6658 179.595 28.7586 179.362 28.7595H179.352Z" fill="#1F0742"/>
<path d="M150.65 34.7558C149.493 34.7558 148.361 34.414 147.399 33.7735C146.437 33.1331 145.686 32.2228 145.243 31.1578C144.8 30.0927 144.685 28.9208 144.91 27.7901C145.136 26.6594 145.693 25.6208 146.511 24.8055C147.33 23.9902 148.372 23.4349 149.507 23.2098C150.642 22.9847 151.819 23.0999 152.888 23.5408C153.958 23.9818 154.872 24.7286 155.515 25.687C156.159 26.6454 156.502 27.7722 156.502 28.925C156.501 30.4707 155.884 31.9528 154.787 33.0459C153.69 34.139 152.202 34.754 150.65 34.7558ZM150.65 24.8496C149.84 24.8499 149.049 25.0894 148.375 25.5378C147.702 25.9862 147.178 26.6233 146.868 27.3687C146.558 28.114 146.477 28.9341 146.636 29.7252C146.794 30.5163 147.184 31.2429 147.757 31.8132C148.33 32.3834 149.059 32.7717 149.854 32.929C150.648 33.0862 151.471 33.0054 152.219 32.6966C152.967 32.3878 153.607 31.865 154.057 31.1943C154.507 30.5236 154.747 29.735 154.747 28.9284C154.745 27.8467 154.313 26.8098 153.545 26.0451C152.777 25.2804 151.736 24.8505 150.65 24.8496Z" fill="#1F0742"/>
<path d="M187.783 34.7558C186.626 34.7568 185.494 34.4159 184.531 33.7762C183.568 33.1366 182.817 32.2268 182.373 31.1621C181.93 30.0974 181.813 28.9254 182.037 27.7945C182.262 26.6636 182.819 25.6244 183.636 24.8085C184.454 23.9926 185.497 23.4365 186.632 23.2106C187.767 22.9847 188.943 23.0991 190.013 23.5394C191.083 23.9796 191.998 24.7259 192.641 25.684C193.285 26.642 193.63 27.7687 193.631 28.9216C193.631 29.1537 193.538 29.3762 193.373 29.5404C193.209 29.7045 192.985 29.7967 192.752 29.7967C192.519 29.7967 192.295 29.7045 192.131 29.5404C191.966 29.3762 191.873 29.1537 191.873 28.9216C191.873 27.9496 191.524 27.0099 190.889 26.2718C190.254 25.5338 189.375 25.046 188.411 24.8966C187.446 24.7472 186.46 24.946 185.63 25.4571C184.8 25.9681 184.181 26.7578 183.884 27.6837C183.587 28.6096 183.632 29.6106 184.011 30.5063C184.39 31.4019 185.078 32.1332 185.951 32.5682C186.823 33.0031 187.823 33.1131 188.77 32.8783C189.717 32.6435 190.549 32.0794 191.115 31.2877C191.179 31.1894 191.262 31.1049 191.359 31.0392C191.457 30.9735 191.566 30.928 191.682 30.9053C191.797 30.8827 191.916 30.8833 192.031 30.9072C192.146 30.9311 192.255 30.9779 192.352 31.0446C192.449 31.1113 192.531 31.1967 192.594 31.2956C192.657 31.3946 192.699 31.5052 192.719 31.6208C192.738 31.7364 192.734 31.8546 192.706 31.9685C192.679 32.0824 192.628 32.1897 192.558 32.2839C192.554 32.2905 192.55 32.2967 192.545 32.3027C192.004 33.0589 191.29 33.6759 190.462 34.1025C189.634 34.5291 188.716 34.753 187.783 34.7558Z" fill="#1F0742"/>
<path d="M212.554 34.7557C211.499 34.7558 210.464 34.472 209.557 33.9341C208.651 33.3963 207.908 32.6244 207.406 31.7003C206.904 30.7762 206.662 29.7341 206.706 28.6843C206.75 27.6345 207.078 26.6161 207.655 25.7367C208.232 24.8573 209.038 24.1497 209.985 23.6887C210.933 23.2277 211.989 23.0304 213.04 23.1178C214.091 23.2052 215.099 23.574 215.957 24.1851C216.815 24.7963 217.492 25.627 217.914 26.5896C218.009 26.7997 218.017 27.0385 217.936 27.2542C217.855 27.4698 217.692 27.645 217.482 27.7417C217.272 27.8385 217.032 27.849 216.815 27.7709C216.597 27.6929 216.42 27.5326 216.32 27.3248C216.32 27.3129 216.31 27.3026 216.306 27.2924C215.93 26.4351 215.269 25.7328 214.434 25.3033C213.6 24.8738 212.642 24.7432 211.722 24.9333C210.803 25.1234 209.976 25.6227 209.382 26.3476C208.788 27.0724 208.462 27.9786 208.459 28.9143C208.456 29.85 208.777 30.7583 209.366 31.4868C209.956 32.2153 210.779 32.7197 211.697 32.9155C212.616 33.1113 213.574 32.9866 214.412 32.5623C215.249 32.1379 215.914 31.4397 216.296 30.5848C216.394 30.3792 216.568 30.2195 216.782 30.1396C216.996 30.0597 217.232 30.0658 217.442 30.1568C217.651 30.2477 217.816 30.4163 217.903 30.6268C217.99 30.8372 217.991 31.0731 217.906 31.2842V31.2962C217.445 32.3266 216.694 33.2018 215.744 33.8158C214.795 34.4299 213.686 34.7563 212.554 34.7557Z" fill="#1F0742"/>
<path d="M155.624 34.7456C155.508 34.7458 155.394 34.7233 155.287 34.6794C155.181 34.6355 155.084 34.571 155.002 34.4897C154.92 34.4084 154.856 34.3119 154.812 34.2056C154.767 34.0993 154.745 33.9854 154.745 33.8704V29.0086C154.745 28.7765 154.838 28.5539 155.002 28.3898C155.167 28.2257 155.391 28.1335 155.624 28.1335C155.857 28.1335 156.08 28.2257 156.245 28.3898C156.41 28.5539 156.502 28.7765 156.502 29.0086V33.8704C156.502 33.9854 156.48 34.0991 156.436 34.2053C156.391 34.3115 156.327 34.408 156.245 34.4892C156.163 34.5705 156.067 34.635 155.96 34.6789C155.853 34.7229 155.739 34.7456 155.624 34.7456Z" fill="#1F0742"/>
<path d="M196.141 34.7455C196.026 34.7455 195.911 34.7229 195.805 34.6789C195.698 34.6349 195.601 34.5705 195.52 34.4892C195.438 34.4079 195.373 34.3114 195.329 34.2053C195.285 34.0991 195.262 33.9853 195.262 33.8704V28.0498C195.264 26.7356 195.789 25.4757 196.722 24.5464C197.655 23.6172 198.92 23.0943 200.24 23.0925H200.68C200.913 23.0925 201.136 23.1847 201.301 23.3488C201.466 23.5129 201.558 23.7355 201.558 23.9676C201.558 24.1997 201.466 24.4223 201.301 24.5864C201.136 24.7505 200.913 24.8427 200.68 24.8427H200.24C199.386 24.8436 198.567 25.1818 197.964 25.7831C197.36 26.3843 197.021 27.1995 197.02 28.0498V33.8636C197.021 33.9785 196.999 34.0926 196.956 34.1992C196.913 34.3059 196.849 34.403 196.768 34.4849C196.687 34.5668 196.59 34.632 196.484 34.6768C196.378 34.7215 196.263 34.7449 196.148 34.7455H196.141Z" fill="#1F0742"/>
<path d="M163.603 34.7455C163.488 34.7458 163.374 34.7233 163.267 34.6796C163.16 34.6358 163.063 34.5715 162.982 34.4904C162.9 34.4093 162.835 34.313 162.791 34.2069C162.746 34.1008 162.723 33.987 162.723 33.8721V27.9389C162.733 27.7133 162.83 27.5002 162.994 27.3441C163.158 27.1879 163.376 27.1008 163.603 27.1008C163.829 27.1008 164.047 27.1879 164.211 27.3441C164.375 27.5002 164.472 27.7133 164.482 27.9389V33.8721C164.482 33.9871 164.46 34.101 164.416 34.2073C164.372 34.3136 164.307 34.4101 164.225 34.4914C164.144 34.5727 164.047 34.6372 163.94 34.6811C163.833 34.725 163.719 34.7475 163.603 34.7473V34.7455Z" fill="#1F0742"/>
<path d="M171.478 34.7455C171.363 34.7455 171.248 34.7229 171.142 34.6789C171.035 34.6349 170.938 34.5705 170.857 34.4892C170.775 34.4079 170.71 34.3115 170.666 34.2053C170.622 34.0991 170.599 33.9853 170.599 33.8704V27.4494C170.599 27.2173 170.692 26.9947 170.857 26.8306C171.021 26.6664 171.245 26.5742 171.478 26.5742C171.711 26.5742 171.934 26.6664 172.099 26.8306C172.264 26.9947 172.357 27.2173 172.357 27.4494V33.8704C172.357 33.9853 172.334 34.0991 172.29 34.2053C172.246 34.3115 172.181 34.4079 172.099 34.4892C172.018 34.5705 171.921 34.6349 171.814 34.6789C171.708 34.7229 171.593 34.7455 171.478 34.7455Z" fill="#1F0742"/>
<path d="M179.35 34.7455C179.235 34.7458 179.12 34.7233 179.014 34.6794C178.907 34.6355 178.81 34.571 178.728 34.4897C178.647 34.4084 178.582 34.3119 178.538 34.2056C178.494 34.0993 178.471 33.9854 178.471 33.8704V27.9526C178.481 27.727 178.578 27.5139 178.742 27.3577C178.906 27.2016 179.124 27.1144 179.351 27.1144C179.578 27.1144 179.796 27.2016 179.96 27.3577C180.123 27.5139 180.22 27.727 180.23 27.9526V33.8704C180.23 33.9853 180.208 34.0991 180.163 34.2053C180.119 34.3115 180.055 34.4079 179.973 34.4892C179.891 34.5705 179.795 34.6349 179.688 34.6789C179.581 34.7229 179.467 34.7455 179.352 34.7455H179.35Z" fill="#1F0742"/>
<path d="M138.449 34.7557C137.177 34.7544 135.957 34.251 135.057 33.3558C134.156 32.4605 133.649 31.2464 133.645 29.9792C133.655 29.7535 133.752 29.5405 133.916 29.3843C134.08 29.2282 134.298 29.141 134.524 29.141C134.751 29.141 134.969 29.2282 135.133 29.3843C135.297 29.5405 135.394 29.7535 135.404 29.9792C135.394 30.3781 135.462 30.7752 135.606 31.1477C135.75 31.5201 135.967 31.8606 136.243 32.1497C136.519 32.4388 136.85 32.6707 137.216 32.8323C137.583 32.9939 137.977 33.082 138.378 33.0914C138.778 33.1008 139.177 33.0314 139.551 32.8873C139.924 32.7431 140.266 32.5269 140.555 32.2511C140.845 31.9754 141.077 31.6454 141.238 31.2801C141.4 30.9149 141.487 30.5215 141.496 30.1225V29.9792C141.496 29.7471 141.589 29.5245 141.753 29.3604C141.918 29.1962 142.142 29.1041 142.375 29.1041C142.608 29.1041 142.831 29.1962 142.996 29.3604C143.161 29.5245 143.253 29.7471 143.253 29.9792C143.25 31.2464 142.742 32.4605 141.842 33.3558C140.941 34.251 139.721 34.7544 138.449 34.7557Z" fill="#1F0742"/>
<path d="M130.598 34.7558C129.326 34.7544 128.106 34.2511 127.206 33.3558C126.305 32.4606 125.798 31.2464 125.794 29.9792C125.794 29.7471 125.887 29.5245 126.051 29.3604C126.216 29.1963 126.44 29.1041 126.673 29.1041C126.906 29.1041 127.129 29.1963 127.294 29.3604C127.459 29.5245 127.551 29.7471 127.551 29.9792C127.551 30.7841 127.872 31.5561 128.444 32.1252C129.015 32.6943 129.79 33.0141 130.598 33.0141C131.406 33.0141 132.181 32.6943 132.753 32.1252C133.324 31.5561 133.645 30.7841 133.645 29.9792C133.645 29.7471 133.738 29.5245 133.902 29.3604C134.067 29.1963 134.291 29.1041 134.524 29.1041C134.757 29.1041 134.98 29.1963 135.145 29.3604C135.31 29.5245 135.402 29.7471 135.402 29.9792C135.399 31.2464 134.891 32.4606 133.991 33.3558C133.09 34.2511 131.87 34.7544 130.598 34.7558Z" fill="#1F0742"/>
<path d="M142.373 30.7827C142.258 30.7832 142.143 30.7609 142.037 30.7173C141.93 30.6737 141.833 30.6096 141.752 30.5286C141.67 30.4476 141.605 30.3514 141.561 30.2454C141.517 30.1394 141.494 30.0257 141.494 29.911V23.9744C141.494 23.7423 141.587 23.5197 141.751 23.3556C141.916 23.1915 142.14 23.0993 142.373 23.0993C142.606 23.0993 142.829 23.1915 142.994 23.3556C143.159 23.5197 143.251 23.7423 143.251 23.9744V29.9076C143.251 30.1397 143.159 30.3623 142.994 30.5264C142.829 30.6905 142.606 30.7827 142.373 30.7827Z" fill="#1F0742"/>
<path d="M134.525 30.8066C134.292 30.8066 134.069 30.7144 133.904 30.5503C133.739 30.3862 133.646 30.1636 133.646 29.9315V25.7128C133.646 25.4807 133.739 25.2581 133.904 25.0939C134.069 24.9298 134.292 24.8376 134.525 24.8376C134.758 24.8376 134.982 24.9298 135.146 25.0939C135.311 25.2581 135.404 25.4807 135.404 25.7128V29.9315C135.404 30.1636 135.311 30.3862 135.146 30.5503C134.982 30.7144 134.758 30.8066 134.525 30.8066Z" fill="#1F0742"/>
<path d="M126.673 30.6821C126.44 30.6821 126.216 30.5899 126.051 30.4258C125.887 30.2616 125.794 30.0391 125.794 29.807V23.9778C125.794 23.7457 125.887 23.5231 126.051 23.359C126.216 23.1949 126.44 23.1027 126.673 23.1027C126.906 23.1027 127.129 23.1949 127.294 23.359C127.459 23.5231 127.551 23.7457 127.551 23.9778V29.807C127.551 30.0391 127.459 30.2616 127.294 30.4258C127.129 30.5899 126.906 30.6821 126.673 30.6821Z" fill="#1F0742"/>
<path d="M192.733 29.8018H183.253C183.02 29.8018 182.797 29.7096 182.632 29.5455C182.467 29.3814 182.375 29.1588 182.375 28.9267C182.375 28.6946 182.467 28.472 182.632 28.3079C182.797 28.1438 183.02 28.0516 183.253 28.0516H192.733C192.966 28.0516 193.19 28.1438 193.354 28.3079C193.519 28.472 193.612 28.6946 193.612 28.9267C193.612 29.1588 193.519 29.3814 193.354 29.5455C193.19 29.7096 192.966 29.8018 192.733 29.8018Z" fill="#1F0742"/>
<path d="M203.833 34.7456C203.718 34.746 203.604 34.7238 203.497 34.6802C203.39 34.6366 203.294 34.5724 203.212 34.4914C203.13 34.4105 203.065 34.3142 203.021 34.2082C202.977 34.1023 202.954 33.9886 202.954 33.8738V23.9506C202.954 23.7185 203.047 23.4959 203.212 23.3318C203.376 23.1677 203.6 23.0754 203.833 23.0754C204.066 23.0754 204.289 23.1677 204.454 23.3318C204.619 23.4959 204.712 23.7185 204.712 23.9506V33.8704C204.712 33.9854 204.689 34.0991 204.645 34.2053C204.601 34.3115 204.536 34.408 204.454 34.4892C204.373 34.5705 204.276 34.635 204.169 34.6789C204.063 34.7229 203.948 34.7456 203.833 34.7456Z" fill="#1F0742"/>
<path d="M159.445 34.7456C159.329 34.7458 159.215 34.7233 159.108 34.6794C159.002 34.6355 158.905 34.571 158.823 34.4897C158.741 34.4084 158.677 34.3119 158.633 34.2056C158.588 34.0993 158.566 33.9854 158.566 33.8704V18.0993C158.566 17.8672 158.659 17.6446 158.823 17.4805C158.988 17.3164 159.212 17.2242 159.445 17.2242C159.678 17.2242 159.901 17.3164 160.066 17.4805C160.231 17.6446 160.323 17.8672 160.323 18.0993V33.8704C160.323 33.9853 160.301 34.0991 160.256 34.2053C160.212 34.3115 160.148 34.4079 160.066 34.4892C159.984 34.5705 159.888 34.6349 159.781 34.6789C159.674 34.7229 159.56 34.7456 159.445 34.7456Z" fill="#1F0742"/>
<path d="M118.147 33.345C118.013 33.4603 117.874 33.5685 117.729 33.6691C117.561 33.7869 117.382 33.8875 117.195 33.9694C116.978 34.0651 116.752 34.1388 116.52 34.1895C115.835 34.3299 115.125 34.2964 114.456 34.0922C114.128 33.9862 113.826 33.8156 113.565 33.5907C113.331 33.3834 113.146 33.1263 113.024 32.8383C112.901 32.5415 112.839 32.223 112.841 31.9018C112.836 31.6285 112.882 31.3566 112.976 31.1C113.064 30.8703 113.189 30.6561 113.344 30.4654C113.504 30.2704 113.689 30.0981 113.896 29.9537C114.11 29.8036 114.334 29.6585 114.572 29.5204C114.317 29.2325 114.092 28.9185 113.903 28.5838C113.712 28.2504 113.612 27.8727 113.613 27.4886C113.612 27.2167 113.671 26.9477 113.785 26.7005C113.901 26.4493 114.071 26.2259 114.281 26.0455C114.511 25.8507 114.776 25.7013 115.062 25.6053C115.696 25.4022 116.376 25.3939 117.015 25.5814C117.284 25.6613 117.536 25.7896 117.758 25.9602C117.964 26.1212 118.132 26.3257 118.25 26.5589C118.369 26.8115 118.428 27.0884 118.421 27.3675C118.424 27.6207 118.375 27.8719 118.279 28.1062C118.185 28.3304 118.054 28.5375 117.892 28.7186C117.722 28.9084 117.532 29.0799 117.326 29.2304C117.108 29.3937 116.879 29.543 116.641 29.6773L118.14 31.2928C118.257 31.0081 118.345 30.7127 118.404 30.4108C118.465 30.1041 118.503 29.7934 118.52 29.4811H120.449V30.7913H119.651C119.536 31.3212 119.346 31.832 119.085 32.3078L120.781 34.1297H118.852L118.147 33.345ZM115.886 32.9663C116.158 32.9706 116.429 32.9249 116.684 32.8316C116.914 32.7477 117.126 32.6234 117.311 32.4648L115.359 30.3614C115.106 30.5033 114.879 30.6873 114.689 30.9056C114.524 31.1115 114.439 31.3693 114.449 31.6323V31.7671C114.443 31.9298 114.473 32.0919 114.536 32.242C114.6 32.392 114.696 32.5263 114.817 32.6354C115.064 32.8571 115.42 32.9663 115.886 32.9663ZM116.033 26.6544C115.796 26.646 115.564 26.7263 115.383 26.8796C115.297 26.9554 115.23 27.049 115.186 27.1537C115.141 27.2584 115.121 27.3716 115.126 27.4852V27.5705C115.127 27.7691 115.187 27.9629 115.297 28.1284C115.466 28.3757 115.652 28.6105 115.855 28.8312C116.135 28.6681 116.392 28.4709 116.623 28.2443C116.718 28.1523 116.794 28.042 116.846 27.9201C116.898 27.7982 116.924 27.6671 116.924 27.5347V27.4614C116.931 27.3479 116.91 27.2345 116.864 27.1304C116.818 27.0264 116.749 26.9346 116.66 26.8626C116.482 26.7233 116.26 26.6497 116.033 26.6544Z" fill="#1F0742"/>
</g>
<path d="M0.0090332 5.80522V0.163808H2.55411C2.79201 0.160617 3.02839 0.201687 3.25115 0.284921C3.45321 0.369114 3.63528 0.494636 3.78553 0.653382C3.9421 0.813627 4.05523 1.01087 4.11435 1.22659C4.27678 1.67532 4.27678 2.16644 4.11435 2.61518C4.03908 2.81149 3.92756 2.99204 3.78553 3.14744C3.63196 3.30229 3.45072 3.42724 3.25115 3.5159C3.0285 3.59972 2.79212 3.64137 2.55411 3.63872H1.07604V5.80522H0.0090332ZM1.11714 2.73458H2.51301C2.60215 2.74745 2.69305 2.73946 2.77853 2.71118C2.86401 2.68289 2.94167 2.63514 3.00537 2.5717C3.06906 2.50826 3.11705 2.4309 3.14544 2.34575C3.17384 2.26061 3.18187 2.17004 3.16894 2.08125V1.71274C3.1794 1.62971 3.16924 1.5454 3.13938 1.46719C3.10952 1.38897 3.06087 1.31925 2.99767 1.26411C2.93156 1.20356 2.85367 1.15718 2.76883 1.12784C2.68398 1.09849 2.594 1.0868 2.50444 1.09352H1.10857L1.11714 2.73458Z" fill="#1F0742"/>
<path d="M8.41456 5.88709C8.06227 5.88263 7.71386 5.81319 7.38694 5.68235C7.0861 5.55317 6.81894 5.35712 6.60595 5.10919C6.38664 4.84308 6.21984 4.53804 6.11438 4.21017C5.89514 3.37929 5.89514 2.50606 6.11438 1.67517C6.22007 1.3474 6.38685 1.0424 6.60595 0.776155C6.8105 0.519349 7.08009 0.321518 7.38694 0.202993C7.71301 0.0695498 8.06204 0.000610005 8.41456 0C8.76666 0.00473127 9.11492 0.0735197 9.44218 0.202993C9.74274 0.331814 10.0094 0.527938 10.2214 0.776155C10.4334 1.04742 10.5999 1.351 10.7147 1.67517C10.9339 2.50606 10.9339 3.37929 10.7147 4.21017C10.6095 4.53851 10.4421 4.84371 10.2214 5.10919C10.0094 5.3574 9.74274 5.55353 9.44218 5.68235C9.12135 5.83252 8.76869 5.90281 8.41456 5.88709ZM8.41456 4.94543C8.59904 4.9566 8.78363 4.92566 8.95429 4.85501C9.12495 4.78435 9.27718 4.67582 9.39936 4.53769C9.66086 4.21558 9.79325 3.80839 9.771 3.39474V2.54179C9.79416 2.12778 9.66237 1.71993 9.40107 1.39713C9.272 1.26787 9.11853 1.1653 8.94953 1.0953C8.78052 1.02531 8.59931 0.989269 8.41627 0.989269C8.23324 0.989269 8.05199 1.02531 7.88298 1.0953C7.71398 1.1653 7.56055 1.26787 7.43148 1.39713C7.17018 1.71993 7.03834 2.12778 7.06151 2.54179V3.39474C7.03834 3.80875 7.17018 4.2166 7.43148 4.5394C7.55364 4.67698 7.70562 4.78504 7.87596 4.85538C8.04629 4.92573 8.2305 4.95654 8.41456 4.94543Z" fill="#1F0742"/>
<path d="M13.6671 5.80516L12.3552 0.163757H13.4222L13.996 2.86081L14.3248 4.57863H14.3659L14.7752 2.86081L15.4329 0.163757H16.6318L17.2877 2.86081L17.6988 4.57863H17.7399L18.1098 2.86081L18.6836 0.163757H19.7112L18.3565 5.80516H17.1576L16.4194 2.81983L16.0906 1.34935L15.7224 2.81983L14.9825 5.80516H13.6671Z" fill="#1F0742"/>
<path d="M21.4673 5.80516V0.163757H25.201V1.10371H22.5343V2.41213H24.8738V3.35209H22.5343V4.82427H25.201V5.76422L21.4673 5.80516Z" fill="#1F0742"/>
<path d="M28.3624 5.8052H27.2954V0.163796H29.8404C30.0783 0.160724 30.3147 0.201791 30.5375 0.284908C30.7393 0.368721 30.9209 0.494311 31.0702 0.653369C31.2123 0.824038 31.3235 1.018 31.399 1.22657C31.4868 1.46159 31.5286 1.71116 31.5223 1.96183C31.5339 2.30535 31.4485 2.64521 31.2757 2.94273C31.0955 3.23145 30.82 3.44859 30.4964 3.55683L31.6456 5.84618H30.4553L29.3883 3.67965H28.3607V5.8052H28.3624ZM29.7582 2.73457C29.8473 2.74707 29.9381 2.73882 30.0234 2.71041C30.1087 2.682 30.1862 2.6342 30.2498 2.57085C30.3135 2.50749 30.3614 2.4303 30.3899 2.34533C30.4184 2.26035 30.4268 2.16995 30.4142 2.08123V1.71273C30.4247 1.6297 30.4145 1.54539 30.3847 1.46717C30.3548 1.38896 30.3061 1.31923 30.2429 1.2641C30.1771 1.20368 30.0995 1.15738 30.0149 1.12803C29.9304 1.09869 29.8407 1.08693 29.7514 1.09351H28.3556V2.72778L29.7582 2.73457Z" fill="#1F0742"/>
<path d="M33.656 5.80516V0.163757H37.3914V1.10371H34.723V2.41213H37.0626V3.35209H34.723V4.82427H37.3914V5.76422L33.656 5.80516Z" fill="#1F0742"/>
<path d="M39.4844 0.163763H41.5396C41.8767 0.153467 42.2123 0.211505 42.5261 0.334353C42.8239 0.449078 43.0907 0.631286 43.3054 0.866575C43.5261 1.13206 43.6935 1.43725 43.7986 1.76559C44.0156 2.56901 44.0156 3.41529 43.7986 4.21871C43.6935 4.54705 43.5261 4.85225 43.3054 5.11773C43.0987 5.36197 42.8294 5.54587 42.5261 5.64995C42.2123 5.77284 41.8767 5.83088 41.5396 5.82054H39.4844V0.163763ZM41.5396 4.86355C41.7143 4.87248 41.8889 4.84439 42.0518 4.78117C42.2148 4.71794 42.3624 4.621 42.485 4.49675C42.6135 4.35242 42.7122 4.18426 42.7754 4.00189C42.8386 3.81952 42.865 3.62654 42.8532 3.43398V2.54179C42.8532 2.05219 42.7299 1.68884 42.485 1.47901C42.3622 1.35511 42.2145 1.25842 42.0516 1.19522C41.8887 1.13202 41.7142 1.10376 41.5396 1.11226H40.5548V4.86526L41.5396 4.86355Z" fill="#1F0742"/>
<path d="M48.9246 0.163763H51.5604C51.772 0.156276 51.9824 0.197727 52.1752 0.284876C52.3529 0.355701 52.5191 0.452262 52.6685 0.571457C52.8014 0.694652 52.9005 0.849718 52.9562 1.02184C53.0294 1.21725 53.0575 1.42654 53.0384 1.63423C53.0377 1.81473 53.01 1.99414 52.9562 2.1665C52.925 2.31607 52.8366 2.44763 52.7096 2.53325C52.6163 2.62459 52.5041 2.69445 52.3808 2.73795C52.2626 2.78461 52.1377 2.81225 52.0108 2.81983V2.86081C52.1505 2.87215 52.2885 2.89962 52.4219 2.94269C52.5754 2.99332 52.7158 3.0772 52.8329 3.18834C52.9515 3.30746 53.0489 3.44591 53.1206 3.59774C53.2077 3.78993 53.2493 3.99946 53.2422 4.21017C53.2451 4.43379 53.2038 4.65581 53.1206 4.86355C53.0497 5.05328 52.9529 5.23235 52.8329 5.39577C52.7111 5.53985 52.5559 5.65224 52.3808 5.72329C52.2013 5.80692 52.0051 5.84895 51.807 5.84615H48.9331V0.163763H48.9246ZM49.9916 2.53325H51.3052C51.3879 2.54083 51.4713 2.53021 51.5494 2.50214C51.6276 2.47407 51.6986 2.42925 51.7574 2.37082C51.8162 2.3124 51.8614 2.2418 51.8898 2.16404C51.9182 2.08628 51.9291 2.00327 51.9218 1.92086V1.67517C51.9288 1.59283 51.9177 1.50994 51.8892 1.43232C51.8607 1.35471 51.8155 1.28428 51.7567 1.22592C51.698 1.16756 51.6271 1.1227 51.5491 1.09452C51.4711 1.06633 51.3878 1.05551 51.3052 1.06278H49.9916V2.53325ZM49.9916 4.90449H51.4696C51.5585 4.91205 51.6481 4.90156 51.7329 4.87371C51.8177 4.84586 51.8959 4.80118 51.9629 4.74239C52.023 4.68455 52.0695 4.61418 52.0991 4.53632C52.1287 4.45846 52.1407 4.37505 52.1341 4.29205V4.00547C52.1446 3.92244 52.1344 3.83809 52.1046 3.75987C52.0747 3.68165 52.0261 3.61193 51.9629 3.5568C51.8968 3.49624 51.8188 3.44987 51.734 3.42052C51.6491 3.39118 51.5592 3.37949 51.4696 3.38621H49.9916V4.90449Z" fill="#1F0742"/>
<path d="M56.3133 5.80516V3.59773L54.3831 0.163757H55.5734L56.887 2.53324L58.1595 0.163757H59.3088L57.3837 3.59773V5.80516H56.3133Z" fill="#1F0742"/>
<defs>
<clipPath id="clip0_2001_38890">
<rect width="218" height="29.1386" fill="white" transform="translate(0 6.47522)"/>
</clipPath>
</defs>
</svg>
