<svg width="112" height="28" viewBox="0 0 112 28" fill="none" xmlns="http://www.w3.org/2000/svg">
<path d="M20.6167 12.4443C20.267 12.4451 19.9316 12.5928 19.6831 12.8553C19.4346 13.1179 19.293 13.4742 19.2888 13.8474V13.9496C19.2884 15.6696 19.7353 17.356 20.5799 18.8212C21.4244 20.2863 22.6334 21.4726 24.0724 22.248C24.3638 22.4049 24.6992 22.4417 25.0145 22.3516C25.3299 22.2615 25.6031 22.0507 25.782 21.7594C27.2327 19.4162 28.0041 16.6689 27.9999 13.8606V13.8463C27.997 13.4728 27.8557 13.1157 27.6068 12.853C27.3579 12.5903 27.0217 12.4434 26.6716 12.4443H20.6167Z" fill="#1F0742"/>
<path d="M14.0004 19.2891C12.2931 19.2891 10.6191 19.7378 9.16345 20.5857C7.70778 21.4336 6.52712 22.6476 5.75202 24.0935C5.59464 24.3892 5.55803 24.7298 5.64923 25.0496C5.74044 25.3694 5.953 25.6458 6.24592 25.8254C8.55638 27.245 11.249 28.0002 14.0001 28.0002C16.7512 28.0002 19.4438 27.245 21.7543 25.8254C22.0472 25.6458 22.2598 25.3694 22.351 25.0496C22.4422 24.7298 22.4056 24.3892 22.2482 24.0935C21.4731 22.6477 20.2925 21.4337 18.837 20.5859C17.3814 19.738 15.7075 19.2892 14.0004 19.2891Z" fill="#1F0742"/>
<path d="M13.9996 9.33334C15.7221 9.33328 17.4099 8.84571 18.8704 7.92625C20.3309 7.0068 21.5052 5.69251 22.2595 4.13335C22.4083 3.82424 22.4403 3.47116 22.3494 3.14005C22.2585 2.80895 22.0511 2.52246 21.7657 2.33411C19.4584 0.811668 16.7599 0.000451616 14.0012 1.88511e-07C11.2425 -0.000451239 8.54371 0.809882 6.2359 2.33157C5.94973 2.51918 5.74157 2.80566 5.65063 3.13706C5.55969 3.46846 5.59225 3.8219 5.74218 4.13081C6.49543 5.69039 7.66914 7.00525 9.12928 7.9252C10.5894 8.84515 12.2771 9.33311 13.9996 9.33334Z" fill="#1F0742"/>
<path d="M2.37897 21.7652C2.57064 22.0539 2.86327 22.2629 3.20103 22.3522C3.5388 22.4416 3.89806 22.405 4.21029 22.2496C5.75992 21.4753 7.06021 20.2899 7.96515 18.8264C8.87009 17.363 9.34382 15.6794 9.33316 13.9648C9.3225 12.2503 8.82786 10.5726 7.90479 9.1202C6.98172 7.66781 5.66678 6.49823 4.10763 5.74281C3.79389 5.59162 3.43486 5.55928 3.09858 5.65191C2.7623 5.74455 2.47211 5.95573 2.28299 6.24545C0.776608 8.56417 -0.0163251 11.2644 0.000254788 14.019C0.0168347 16.7736 0.842216 19.4643 2.3764 21.7652H2.37897Z" fill="#1F0742"/>
<path d="M111.333 22.0426C111.342 22.2801 111.294 22.5162 111.193 22.7314C111.116 22.9565 110.978 23.156 110.794 23.3073C110.616 23.4597 110.422 23.5927 110.215 23.7039C109.993 23.7862 109.759 23.8346 109.522 23.8475C109.283 23.8551 109.045 23.8059 108.829 23.7039C108.603 23.6277 108.402 23.4904 108.25 23.3073C108.085 23.1393 107.95 22.9445 107.851 22.7314C107.748 22.5168 107.698 22.2805 107.707 22.0426C107.699 21.8047 107.749 21.5683 107.851 21.3532C108.046 20.9205 108.394 20.5743 108.829 20.3807C109.052 20.2983 109.285 20.2499 109.522 20.2371C109.761 20.2295 109.999 20.2787 110.215 20.3807C110.432 20.4508 110.613 20.5972 110.794 20.7773C110.959 20.9454 111.093 21.1402 111.193 21.3532C111.29 21.5698 111.339 21.8053 111.333 22.0426ZM110.935 22.0426C110.934 21.8573 110.898 21.6739 110.827 21.5024C110.761 21.3404 110.662 21.1934 110.537 21.0702C110.41 20.95 110.263 20.8526 110.103 20.7822C109.931 20.711 109.746 20.6743 109.56 20.6743C109.373 20.6743 109.189 20.711 109.017 20.7822C108.848 20.857 108.689 20.9538 108.546 21.0702C108.405 21.2145 108.293 21.3581 108.256 21.5024C108.185 21.6735 108.148 21.857 108.148 22.0423C108.148 22.2276 108.185 22.4111 108.256 22.5821C108.331 22.7504 108.429 22.9079 108.546 23.0502C108.68 23.1792 108.84 23.2775 109.017 23.3381C109.189 23.4096 109.373 23.4464 109.56 23.4464C109.746 23.4464 109.931 23.4096 110.103 23.3381C110.272 23.2642 110.431 23.1673 110.573 23.0502C110.703 22.9172 110.802 22.7574 110.863 22.5821C110.904 22.4051 110.928 22.2244 110.933 22.0426H110.935ZM110.279 21.754C110.273 21.8651 110.249 21.9746 110.208 22.0784C110.152 22.1778 110.062 22.2542 109.955 22.2942L110.353 22.9479H109.919L109.557 22.3306H109.3V22.9479H108.866V21.1374H109.631C109.717 21.1317 109.803 21.1438 109.884 21.1731C110.048 21.2408 110.178 21.3703 110.246 21.5333C110.272 21.604 110.282 21.6791 110.277 21.754H110.279ZM109.293 21.9705H109.727C109.754 21.9663 109.779 21.9535 109.798 21.934L109.868 21.864C109.868 21.8275 109.904 21.7939 109.904 21.7554V21.6475C109.903 21.6294 109.895 21.6125 109.882 21.5997C109.869 21.5869 109.852 21.579 109.834 21.5774C109.797 21.541 109.797 21.541 109.763 21.541H109.329V21.9733L109.293 21.9705Z" fill="#1F0742"/>
<path d="M81.1594 21.8265H82.5401C82.5767 22.5517 83.1973 22.9475 84.03 22.9475C84.795 22.9475 85.374 22.6231 85.374 22.0423C85.374 21.3886 84.609 21.245 83.7764 21.1007C82.6127 20.9206 81.2686 20.6326 81.2686 19.038C81.2686 17.809 82.3591 16.936 83.9574 16.936C85.5558 16.936 86.6103 17.8055 86.6463 19.1431H85.3015C85.2656 18.4894 84.7591 18.1299 83.9208 18.1299C83.1199 18.1299 82.6528 18.4536 82.6528 18.963C82.6528 19.5803 83.3453 19.6882 84.2138 19.8318C85.3776 20.0119 86.8308 20.2641 86.8308 21.9666C86.8308 23.3035 85.7037 24.173 83.9969 24.173C82.3231 24.1772 81.1961 23.2719 81.1594 21.8265Z" fill="#1F0742"/>
<path d="M39.9304 4.9001V10.9018C39.9304 13.1088 38.6223 14.4456 36.4787 14.4456C34.7 14.4456 33.4228 13.5404 33.0608 12.0235H34.4746C34.7282 12.7844 35.5657 13.1803 36.4399 13.1803C37.6375 13.1803 38.5138 12.383 38.5138 11.0819V10.7582C37.872 11.2944 37.0612 11.5893 36.223 11.5912C35.7738 11.5982 35.3281 11.5123 34.9141 11.339C34.4992 11.1637 34.1179 10.9184 33.787 10.6138C33.4605 10.3009 33.211 9.91731 33.0579 9.49281C32.887 9.08027 32.8008 8.6379 32.8043 8.19172C32.7974 7.74501 32.8837 7.30172 33.0579 6.88993C33.2346 6.47747 33.4812 6.09827 33.787 5.7689C34.1097 5.4451 34.4925 5.18668 34.9141 5.008C35.3291 4.83797 35.7741 4.75221 36.223 4.75577C36.6954 4.74873 37.1646 4.83444 37.6037 5.008C38.0472 5.18215 38.4449 5.4546 38.7667 5.80463L38.9844 4.8994L39.9304 4.9001ZM36.4033 10.2537C37.6396 10.2537 38.5497 9.34848 38.5497 8.15529C38.5497 6.96209 37.6396 6.05686 36.4033 6.05686C36.1173 6.04952 35.8326 6.09857 35.5657 6.2012C35.302 6.30254 35.0651 6.46265 34.8733 6.66922C34.6633 6.85808 34.5019 7.09426 34.4027 7.35795C34.2988 7.62343 34.2494 7.90694 34.2576 8.19172C34.2625 9.34848 35.1677 10.2537 36.4033 10.2537Z" fill="#1F0742"/>
<path d="M41.4626 2.91441L42.8793 2.41064V11.7761H41.4626V2.91441Z" fill="#1F0742"/>
<path d="M47.8215 11.9515C45.6757 11.9515 44.114 10.3982 44.114 8.33553C44.114 6.27284 45.7117 4.72021 47.8215 4.72021C49.9672 4.72021 51.5289 6.27354 51.5289 8.33553C51.5289 10.434 49.9312 11.9515 47.8215 11.9515ZM50.0756 8.33553C50.0756 7.03444 49.1289 6.09347 47.8215 6.09347C46.514 6.09347 45.5673 7.03444 45.5673 8.33553C45.5673 9.63662 46.514 10.5776 47.8215 10.5776C49.1296 10.6133 50.0756 9.67235 50.0756 8.33553Z" fill="#1F0742"/>
<path d="M59.9632 8.33567C59.9632 10.3984 58.4381 11.9517 56.3642 11.9517C55.4513 11.9539 54.5702 11.6182 53.8923 11.01L53.7113 11.8074H52.6201V2.95054L54.0374 2.44678V5.55833C54.6821 5.03265 55.4926 4.75028 56.3262 4.761C58.4395 4.72036 59.9632 6.27859 59.9632 8.33567ZM58.5106 8.33567C58.5106 7.03458 57.5639 6.09362 56.2564 6.09362C55.9669 6.09362 55.6358 6.12935 55.3822 6.23725C55.0946 6.35052 54.8341 6.52235 54.6172 6.74171C54.4002 6.95751 54.2551 7.20974 54.1107 7.46688C54.0015 7.75484 53.9297 8.0428 53.9656 8.33567C53.9609 8.63183 54.01 8.9264 54.1107 9.20517C54.216 9.48516 54.3901 9.73447 54.6172 9.93033C54.8342 10.1408 55.0955 10.3006 55.3822 10.3984C55.6717 10.5063 55.962 10.5784 56.2564 10.542C57.5287 10.5784 58.5106 9.63676 58.5106 8.33567Z" fill="#1F0742"/>
<path d="M68.1803 4.90022V11.7714H67.0532L66.9081 10.9383C66.5721 11.263 66.1772 11.5213 65.7443 11.6992C65.3053 11.8728 64.8361 11.9585 64.3636 11.9515C62.2905 11.9515 60.7288 10.3982 60.7288 8.33546C60.7288 6.27278 62.2905 4.72015 64.3636 4.72015C64.836 4.71289 65.3052 4.79836 65.7443 4.97168C66.1793 5.14596 66.575 5.40489 66.9081 5.73328L67.0891 4.86379L68.1803 4.90022ZM66.7637 8.33336C66.7637 7.03227 65.8169 6.09131 64.5095 6.09131C64.2199 6.09131 63.8889 6.12704 63.6353 6.23494C63.3477 6.34821 63.0871 6.52004 62.8702 6.7394C62.6533 6.9552 62.5082 7.20743 62.363 7.46457C62.2546 7.75253 62.1827 8.04049 62.2222 8.33336C62.2164 8.62925 62.2641 8.92375 62.363 9.20286C62.4689 9.48276 62.6432 9.732 62.8702 9.92802C63.0872 10.1438 63.3408 10.2882 63.6353 10.4318C63.9248 10.5397 64.2143 10.6119 64.5095 10.5761C65.8176 10.5761 66.7637 9.63446 66.7637 8.33406V8.33336Z" fill="#1F0742"/>
<path d="M69.6335 2.91441L71.0501 2.41064V11.7761H69.6335V2.91441Z" fill="#1F0742"/>
<path d="M74.6133 9.60063H75.994C76.0299 10.3258 76.6505 10.7217 77.4831 10.7217C78.2489 10.7217 78.8279 10.398 78.8279 9.81643C78.8279 9.16343 78.0622 9.0198 77.2295 8.87547C76.0665 8.6954 74.7218 8.40744 74.7218 6.81278C74.7218 5.58385 75.8129 4.71436 77.4106 4.71436C79.0082 4.71436 80.0656 5.58385 80.1001 6.92068H78.7553C78.7194 6.26768 78.2122 5.90755 77.3747 5.90755C76.573 5.90755 76.1025 6.23195 76.1025 6.74131C76.1025 7.35788 76.8315 7.46648 77.6642 7.61011C78.8279 7.79017 80.2804 8.0424 80.2804 9.74496C80.2804 11.0818 79.1533 11.9513 77.4472 11.9513C75.777 11.9513 74.6492 11.0152 74.6133 9.60063Z" fill="#1F0742"/>
<path d="M88.6477 4.90022V11.7714H87.484L87.3431 10.9383C87.0071 11.2629 86.6122 11.5211 86.1794 11.6992C85.7403 11.8728 85.2711 11.9585 84.7987 11.9515C82.7248 11.9515 81.1631 10.3982 81.1631 8.33546C81.1631 6.27278 82.7248 4.72015 84.7987 4.72015C85.2711 4.71289 85.7403 4.79836 86.1794 4.97168C86.6143 5.14618 87.0099 5.40508 87.3431 5.73328L87.5242 4.86379L88.6477 4.90022ZM87.2311 8.33336C87.2311 7.03227 86.2843 6.09131 84.9769 6.09131C84.6874 6.09131 84.3563 6.12704 84.1027 6.23494C83.8151 6.34821 83.5545 6.52004 83.3377 6.7394C83.1207 6.9552 82.9756 7.20743 82.8305 7.46457C82.722 7.75253 82.6502 8.04049 82.6896 8.33336C82.6839 8.62925 82.7316 8.92375 82.8305 9.20286C82.9363 9.48276 83.1106 9.732 83.3377 9.92802C83.5546 10.1438 83.8083 10.2882 84.1027 10.4318C84.3922 10.5397 84.6825 10.6119 84.9769 10.5761C86.2491 10.5761 87.2311 9.63446 87.2311 8.33406V8.33336Z" fill="#1F0742"/>
<path d="M90.0286 2.91441L91.4452 2.41064V11.7761H90.0286V2.91441Z" fill="#1F0742"/>
<path d="M99.7758 8.81256H94.1403C94.3213 9.93359 95.1265 10.623 96.286 10.623C97.1243 10.623 97.7759 10.2265 98.1429 9.60919H99.6321C99.089 11.0546 97.8118 11.9598 96.2508 11.9598C94.2136 11.9598 92.6877 10.4065 92.6877 8.34453C92.6877 6.28254 94.2136 4.72852 96.2508 4.72852C98.3965 4.72852 99.8138 6.35401 99.8138 8.34453C99.8208 8.50151 99.8081 8.65874 99.7758 8.81256ZM94.1755 7.69153H98.3951C98.1422 6.64057 97.3384 6.03031 96.2818 6.03031C95.1941 6.0212 94.3932 6.64057 94.1755 7.68733V7.69153Z" fill="#1F0742"/>
<path d="M100.5 9.60063H101.881C101.917 10.3258 102.537 10.7217 103.37 10.7217C104.136 10.7217 104.715 10.398 104.715 9.81643C104.715 9.16343 103.949 9.0198 103.117 8.87547C101.953 8.6954 100.608 8.40744 100.608 6.81278C100.608 5.58385 101.7 4.71436 103.298 4.71436C104.896 4.71436 105.95 5.58385 105.989 6.92068H104.644C104.608 6.26768 104.101 5.90755 103.263 5.90755C102.462 5.90755 101.991 6.23195 101.991 6.74131C101.991 7.35788 102.72 7.46648 103.553 7.61011C104.717 7.79017 106.17 8.0424 106.17 9.74496C106.17 11.0818 105.043 11.9513 103.336 11.9513C101.664 11.9513 100.537 11.0152 100.5 9.60063Z" fill="#1F0742"/>
<path d="M40.3354 20.561C40.3354 22.6236 38.8096 24.177 36.7357 24.177C35.8869 24.1773 35.0647 23.8826 34.4111 23.3439V26.4912H32.991V17.1257H33.9729L34.2265 17.9588C34.5624 17.6338 34.9573 17.3754 35.3903 17.1972C35.8169 17.0248 36.2739 16.9393 36.7343 16.9456C38.8392 16.9814 40.3354 18.499 40.3354 20.561ZM38.9132 20.561C38.9132 19.2599 37.9664 18.3189 36.659 18.3189C36.3694 18.3189 36.0384 18.3546 35.7855 18.4625C35.4976 18.5756 35.2367 18.7475 35.0197 18.967C34.8028 19.1828 34.6577 19.435 34.5133 19.7279C34.4048 20.0159 34.3322 20.3038 34.3681 20.5974C34.3637 20.8933 34.4129 21.1876 34.5133 21.4662C34.6271 21.7523 34.7996 22.0116 35.0197 22.2278C35.2367 22.4436 35.4903 22.5879 35.7855 22.7315C36.075 22.8394 36.3645 22.9116 36.659 22.8759C37.9361 22.8394 38.9132 21.8627 38.9132 20.5638V20.561Z" fill="#1F0742"/>
<path d="M48.507 17.1258V23.997H47.3461L47.201 23.1639C46.8651 23.4886 46.4702 23.7468 46.0373 23.9248C45.5982 24.0984 45.129 24.1841 44.6566 24.177C42.5835 24.177 41.0217 22.6237 41.0217 20.561C41.0217 18.4983 42.5835 16.9457 44.6566 16.9457C45.129 16.9387 45.5981 17.0242 46.0373 17.1972C46.4723 17.3715 46.868 17.6304 47.201 17.9588L47.38 17.0893L48.507 17.1258ZM47.0904 20.5589C47.0904 19.2578 46.1444 18.3169 44.8362 18.3169C44.5467 18.3169 44.2156 18.3526 43.9627 18.4605C43.6838 18.5744 43.4252 18.7325 43.197 18.9285C42.9746 19.1428 42.8018 19.4027 42.6905 19.6901C42.5821 19.9781 42.5095 20.2661 42.5454 20.5589C42.5454 20.8469 42.5821 21.1762 42.6905 21.4284C42.804 21.7165 42.977 21.9776 43.1984 22.1949C43.4156 22.4055 43.6771 22.5654 43.9642 22.6629C44.244 22.7639 44.54 22.8128 44.8376 22.8073C46.1099 22.843 47.0918 21.8663 47.0918 20.5652L47.0904 20.5589Z" fill="#1F0742"/>
<path d="M53.9647 17.0894V18.4269H53.1997C52.0022 18.4269 51.4203 19.0799 51.4203 20.3452V24.0327H50.0037V17.1615H50.9899L51.2428 18.1025C51.75 17.4495 52.4065 17.1258 53.3892 17.1258L53.9647 17.0894Z" fill="#1F0742"/>
<path d="M59.4567 22.7266V24.0277H58.4001C56.875 24.0277 55.9282 23.0867 55.9282 21.5691V18.3462H54.6926V18.061L57.1286 15.5303H57.3829V17.1193H59.4567V18.349H57.3829V21.4605C57.3829 22.2936 57.8534 22.7259 58.691 22.7259L59.4567 22.7266Z" fill="#1F0742"/>
<path d="M67.0531 19.8724V24.0328H65.6358V20.1632C65.6358 18.8978 65.0927 18.2448 64.0381 18.2448C62.947 18.2448 62.1819 19.1143 62.1819 20.3467V24.0342H60.7639V17.1616H61.7501L62.0396 18.1425C62.5461 17.4531 63.4203 17.0215 64.4389 17.0215C66.0338 16.9815 67.0531 18.1747 67.0531 19.8724Z" fill="#1F0742"/>
<path d="M75.2338 20.5975C75.2398 20.7544 75.2275 20.9114 75.1972 21.0655H69.5617C69.7427 22.1865 70.5444 22.8759 71.7074 22.8759C72.5457 22.8759 73.1973 22.4801 73.5643 21.8628H75.0535C74.5103 23.3075 73.2332 24.2128 71.6722 24.2128C69.6349 24.2128 68.1091 22.6594 68.1091 20.5975C68.1091 18.5355 69.6349 16.9814 71.6722 16.9814C73.8559 16.9814 75.2711 18.5705 75.2352 20.5975H75.2338ZM69.5983 19.908H73.8179C73.565 18.8571 72.7612 18.2468 71.7046 18.2468C70.6479 18.2468 69.8484 18.8949 69.5948 19.908H69.5983Z" fill="#1F0742"/>
<path d="M80.3585 17.0894V18.4269H79.5927C78.3952 18.4269 77.814 19.0799 77.814 20.3452V24.0327H76.3967V17.1615H77.3794L77.633 18.1025C78.1395 17.4495 78.7967 17.1258 79.7787 17.1258L80.3585 17.0894Z" fill="#1F0742"/>
<path d="M94.4292 19.872V24.0325H93.0125V20.1628C93.0125 18.8974 92.4694 18.2444 91.4142 18.2444C90.323 18.2444 89.558 19.1139 89.558 20.3464V24.0339H88.1414V15.1763L89.558 14.6719V17.9278C89.8588 17.6363 90.2022 17.3918 90.5766 17.2026C90.9746 17.0583 91.3782 16.9504 91.8129 16.9868C93.4105 16.9812 94.4292 18.1022 94.4292 19.872Z" fill="#1F0742"/>
<path d="M95.9907 17.126H97.4073V23.9972H95.9907V17.126Z" fill="#1F0742"/>
<path d="M106.318 20.5612C106.318 22.6239 104.792 24.1772 102.718 24.1772C101.869 24.1775 101.047 23.8829 100.394 23.3442V26.4915H98.9771V17.126H99.959L100.213 17.959C100.549 17.6343 100.944 17.3758 101.376 17.1974C101.804 17.0277 102.26 16.9423 102.72 16.9459C104.791 16.9816 106.318 18.4992 106.318 20.5612ZM104.865 20.5612C104.865 19.2601 103.918 18.3192 102.611 18.3192C102.321 18.3192 101.99 18.3549 101.737 18.4628C101.449 18.5759 101.188 18.7477 100.971 18.9673C100.754 19.1831 100.609 19.4353 100.465 19.7282C100.356 20.0161 100.284 20.3041 100.32 20.5977C100.315 20.8936 100.364 21.1879 100.465 21.4665C100.579 21.7525 100.751 22.0119 100.971 22.228C101.188 22.4438 101.442 22.5882 101.737 22.7318C102.027 22.8397 102.316 22.9119 102.611 22.8761C103.918 22.8397 104.862 21.863 104.862 20.5612H104.865Z" fill="#1F0742"/>
<path d="M96.7199 16.2919C97.263 16.2919 97.7025 15.8603 97.7025 15.3509C97.7105 15.1552 97.6595 14.9617 97.556 14.7951C97.4524 14.6286 97.3011 14.4967 97.1216 14.4164C96.942 14.336 96.7424 14.311 96.5484 14.3445C96.3545 14.378 96.175 14.4685 96.0332 14.6043C95.8913 14.7401 95.7936 14.9151 95.7526 15.1066C95.7116 15.2981 95.7291 15.4975 95.803 15.679C95.8769 15.8605 96.0037 16.0159 96.1671 16.1251C96.3305 16.2343 96.523 16.2924 96.7199 16.2919Z" fill="#1F0742"/>
</svg>
