<svg width="168" height="42" viewBox="0 0 168 42" fill="none" xmlns="http://www.w3.org/2000/svg">
<path d="M30.9249 18.6667C30.4003 18.6679 29.8973 18.8893 29.5245 19.2831C29.1518 19.677 28.9393 20.2115 28.9331 20.7712V20.9245C28.9325 23.5046 29.6029 26.0343 30.8697 28.2319C32.1365 30.4296 33.95 32.209 36.1084 33.3722C36.5456 33.6075 37.0487 33.6628 37.5217 33.5276C37.9947 33.3924 38.4045 33.0762 38.6729 32.6393C40.8489 29.1245 42.006 25.0035 41.9997 20.7911V20.7697C41.9954 20.2094 41.7834 19.6737 41.41 19.2797C41.0367 18.8856 40.5324 18.6653 40.0072 18.6667H30.9249Z" fill="#6C30EB"/>
<path d="M21.0003 28.9333C18.4394 28.9333 15.9284 29.6065 13.7449 30.8783C11.5614 32.1502 9.79044 33.9712 8.62778 36.14C8.39172 36.5835 8.3368 37.0944 8.4736 37.5741C8.61041 38.0538 8.92925 38.4684 9.36863 38.7378C12.8343 40.8672 16.8732 42 20.9999 42C25.1266 42 29.1655 40.8672 32.6312 38.7378C33.0706 38.4684 33.3894 38.0538 33.5262 37.5741C33.663 37.0944 33.6081 36.5835 33.372 36.14C32.2094 33.9713 30.4386 32.1503 28.2552 30.8785C26.0718 29.6067 23.561 28.9335 21.0003 28.9333Z" fill="#A717FF"/>
<path d="M20.9991 14C23.5829 13.9999 26.1146 13.2686 28.3053 11.8894C30.4961 10.5102 32.2576 8.53876 33.3889 6.20002C33.6122 5.73636 33.6601 5.20674 33.5238 4.71008C33.3876 4.21342 33.0763 3.78369 32.6484 3.50117C29.1874 1.2175 25.1396 0.000677424 21.0015 2.82767e-07C16.8635 -0.000676859 12.8153 1.21482 9.3536 3.49736C8.92434 3.77876 8.6121 4.20849 8.4757 4.70559C8.33929 5.20269 8.38814 5.73285 8.61303 6.19621C9.74289 8.53558 11.5035 10.5079 13.6937 11.8878C15.8839 13.2677 18.4154 13.9997 20.9991 14Z" fill="#FFB000"/>
<path d="M3.56845 32.6476C3.85595 33.0807 4.2949 33.3941 4.80155 33.5282C5.3082 33.6622 5.84709 33.6074 6.31543 33.3742C8.63987 32.2128 10.5903 30.4346 11.9477 28.2394C13.3051 26.0442 14.0157 23.5189 13.9997 20.9471C13.9837 18.3752 13.2418 15.8587 11.8572 13.6801C10.4726 11.5015 8.50016 9.74717 6.16145 8.61403C5.69083 8.38724 5.15229 8.33873 4.64787 8.47769C4.14344 8.61665 3.70816 8.93342 3.42448 9.368C1.16491 12.8461 -0.0244877 16.8964 0.000382181 21.0283C0.025252 25.1602 1.26332 29.1963 3.5646 32.6476H3.56845Z" fill="#00E1B9"/>
<path d="M167 33.0643C167.013 33.4204 166.941 33.7746 166.789 34.0974C166.674 34.4351 166.467 34.7343 166.191 34.9613C165.923 35.1899 165.632 35.3893 165.322 35.5561C164.989 35.6796 164.638 35.7523 164.283 35.7716C163.924 35.7829 163.568 35.7091 163.244 35.5561C162.904 35.4418 162.603 35.2359 162.375 34.9613C162.128 34.7092 161.925 34.4171 161.777 34.0974C161.622 33.7756 161.547 33.421 161.56 33.0643C161.549 32.7073 161.623 32.3528 161.777 32.0301C162.069 31.381 162.591 30.8617 163.244 30.5714C163.577 30.4478 163.928 30.3751 164.283 30.3559C164.642 30.3446 164.998 30.4184 165.322 30.5714C165.648 30.6765 165.919 30.8961 166.191 31.1662C166.438 31.4185 166.64 31.7106 166.789 32.0301C166.935 32.3549 167.008 32.7082 167 33.0643ZM166.403 33.0643C166.402 32.7863 166.346 32.5112 166.24 32.254C166.141 32.0109 165.993 31.7904 165.806 31.6055C165.615 31.4254 165.395 31.2793 165.154 31.1736C164.896 31.0667 164.619 31.0117 164.339 31.0117C164.06 31.0117 163.783 31.0667 163.525 31.1736C163.271 31.2858 163.034 31.431 162.819 31.6055C162.607 31.822 162.439 32.0375 162.384 32.254C162.277 32.5105 162.221 32.7858 162.221 33.0637C162.221 33.3417 162.277 33.617 162.384 33.8735C162.497 34.1259 162.643 34.3621 162.819 34.5756C163.019 34.7692 163.26 34.9166 163.525 35.0075C163.783 35.1147 164.06 35.17 164.339 35.17C164.619 35.17 164.896 35.1147 165.154 35.0075C165.408 34.8966 165.646 34.7513 165.86 34.5756C166.055 34.3761 166.203 34.1364 166.294 33.8735C166.356 33.6079 166.391 33.3368 166.4 33.0643H166.403ZM165.418 32.6313C165.409 32.798 165.373 32.9622 165.312 33.1179C165.228 33.267 165.093 33.3816 164.932 33.4416L165.529 34.4221H164.878L164.335 33.4962H163.949V34.4221H163.298V31.7064H164.446C164.575 31.6978 164.705 31.7161 164.826 31.76C165.072 31.8615 165.267 32.0558 165.369 32.3002C165.407 32.4064 165.423 32.5189 165.416 32.6313H165.418ZM163.939 32.956H164.591C164.631 32.9497 164.668 32.9306 164.696 32.9014L164.802 32.7963C164.802 32.7416 164.856 32.6912 164.856 32.6334V32.4715C164.854 32.4445 164.842 32.4191 164.822 32.3999C164.803 32.3806 164.778 32.3688 164.75 32.3664C164.695 32.3118 164.695 32.3118 164.645 32.3118H163.993V32.9602L163.939 32.956Z" fill="#1F0742"/>
<path d="M121.739 32.7395H123.81C123.865 33.8273 124.796 34.4211 126.045 34.4211C127.193 34.4211 128.061 33.9345 128.061 33.0632C128.061 32.0827 126.914 31.8672 125.665 31.6507C123.919 31.3806 121.903 30.9487 121.903 28.5567C121.903 26.7133 123.539 25.4038 125.936 25.4038C128.334 25.4038 129.916 26.7081 129.97 28.7143H127.952C127.898 27.7338 127.139 27.1946 125.881 27.1946C124.68 27.1946 123.979 27.6802 123.979 28.4442C123.979 29.3701 125.018 29.532 126.321 29.7474C128.066 30.0175 130.246 30.3959 130.246 32.9497C130.246 34.955 128.556 36.2592 125.995 36.2592C123.485 36.2655 121.794 34.9077 121.739 32.7395Z" fill="#1F0742"/>
<path d="M59.8955 7.35034V16.3529C59.8955 19.6634 57.9333 21.6686 54.7179 21.6686C52.0498 21.6686 50.1341 20.3108 49.591 18.0355H51.7117C52.0921 19.1768 53.3485 19.7706 54.6598 19.7706C56.4561 19.7706 57.7706 18.5746 57.7706 16.623V16.1374C56.8079 16.9418 55.5916 17.3841 54.3343 17.387C53.6606 17.3974 52.9921 17.2686 52.3711 17.0087C51.7487 16.7458 51.1767 16.3778 50.6804 15.9209C50.1906 15.4516 49.8164 14.8761 49.5868 14.2394C49.3304 13.6206 49.2011 12.957 49.2064 12.2878C49.1959 11.6177 49.3255 10.9528 49.5868 10.3351C49.8518 9.71638 50.2217 9.14759 50.6804 8.65353C51.1644 8.16783 51.7386 7.78021 52.3711 7.51219C52.9936 7.25714 53.6611 7.1285 54.3343 7.13384C55.043 7.12328 55.7467 7.25185 56.4054 7.51219C57.0706 7.77341 57.6673 8.18209 58.1499 8.70713L58.4764 7.34929L59.8955 7.35034ZM54.6048 15.3807C56.4593 15.3807 57.8245 14.0229 57.8245 12.2331C57.8245 10.4433 56.4593 9.08548 54.6048 9.08548C54.1758 9.07446 53.7488 9.14804 53.3485 9.30198C52.9529 9.454 52.5975 9.69416 52.3098 10.004C51.9948 10.2873 51.7528 10.6416 51.6039 11.0371C51.4481 11.4353 51.374 11.8606 51.3863 12.2878C51.3937 14.0229 52.7515 15.3807 54.6048 15.3807Z" fill="#1F0742"/>
<path d="M62.1938 4.37191L64.3188 3.61627V17.6645H62.1938V4.37191Z" fill="#1F0742"/>
<path d="M71.7323 17.9272C68.5137 17.9272 66.1711 15.5973 66.1711 12.5032C66.1711 9.40919 68.5676 7.08026 71.7323 7.08026C74.9509 7.08026 77.2935 9.41025 77.2935 12.5032C77.2935 15.6509 74.897 17.9272 71.7323 17.9272ZM75.1136 12.5032C75.1136 10.5516 73.6934 9.14015 71.7323 9.14015C69.7712 9.14015 68.351 10.5516 68.351 12.5032C68.351 14.4549 69.7712 15.8663 71.7323 15.8663C73.6945 15.9199 75.1136 14.5085 75.1136 12.5032Z" fill="#1F0742"/>
<path d="M89.9448 12.5033C89.9448 15.5973 87.6571 17.9273 84.5463 17.9273C83.1769 17.9306 81.8553 17.4271 80.8385 16.5148L80.5669 17.7108H78.9302V4.42556L81.0562 3.66992V8.33724C82.0231 7.54874 83.239 7.12517 84.4893 7.14125C87.6592 7.0803 89.9448 9.41763 89.9448 12.5033ZM87.766 12.5033C87.766 10.5516 86.3458 9.14018 84.3846 9.14018C83.9504 9.14018 83.4537 9.19378 83.0733 9.35563C82.642 9.52553 82.2511 9.78328 81.9258 10.1123C81.6003 10.436 81.3827 10.8144 81.1661 11.2001C81.0023 11.632 80.8945 12.064 80.9484 12.5033C80.9413 12.9475 81.0151 13.3894 81.1661 13.8075C81.324 14.2275 81.5852 14.6015 81.9258 14.8953C82.2513 15.2109 82.6433 15.4507 83.0733 15.5973C83.5076 15.7591 83.943 15.8674 84.3846 15.8127C86.293 15.8674 87.766 14.4549 87.766 12.5033Z" fill="#1F0742"/>
<path d="M102.271 7.35039V17.6572H100.58L100.362 16.4076C99.8583 16.8946 99.2659 17.2819 98.6166 17.5489C97.958 17.8093 97.2542 17.9378 96.5456 17.9273C93.4359 17.9273 91.0933 15.5973 91.0933 12.5033C91.0933 9.40922 93.4359 7.08029 96.5456 7.08029C97.2542 7.06939 97.9579 7.1976 98.6166 7.45759C99.2691 7.719 99.8626 8.10739 100.362 8.59998L100.634 7.29574L102.271 7.35039ZM100.146 12.5001C100.146 10.5485 98.7255 9.13703 96.7643 9.13703C96.33 9.13703 95.8334 9.19062 95.453 9.35247C95.0216 9.52237 94.6308 9.78012 94.3055 10.1092C93.98 10.4329 93.7624 10.8112 93.5447 11.1969C93.382 11.6289 93.2742 12.0608 93.3334 12.5001C93.3247 12.9439 93.3963 13.3857 93.5447 13.8043C93.7034 14.2242 93.9649 14.5981 94.3055 14.8921C94.6309 15.2158 95.0113 15.4323 95.453 15.6477C95.8873 15.8096 96.3216 15.9178 96.7643 15.8642C98.7265 15.8642 100.146 14.4517 100.146 12.5012V12.5001Z" fill="#1F0742"/>
<path d="M104.45 4.37191L106.575 3.61627V17.6645H104.45V4.37191Z" fill="#1F0742"/>
<path d="M111.92 14.4013H113.991C114.045 15.489 114.976 16.0828 116.225 16.0828C117.373 16.0828 118.242 15.5972 118.242 14.7249C118.242 13.7454 117.093 13.53 115.844 13.3135C114.1 13.0434 112.083 12.6115 112.083 10.2195C112.083 8.37608 113.719 7.07184 116.116 7.07184C118.512 7.07184 120.098 8.37608 120.15 10.3813H118.133C118.079 9.40182 117.318 8.86163 116.062 8.86163C114.86 8.86163 114.154 9.34822 114.154 10.1123C114.154 11.0371 115.247 11.2 116.496 11.4155C118.242 11.6856 120.421 12.0639 120.421 14.6177C120.421 16.623 118.73 17.9272 116.171 17.9272C113.666 17.9272 111.974 16.5231 111.92 14.4013Z" fill="#1F0742"/>
<path d="M132.972 7.35039V17.6572H131.226L131.015 16.4076C130.511 16.8944 129.918 17.2817 129.269 17.5489C128.61 17.8093 127.907 17.9378 127.198 17.9273C124.087 17.9273 121.745 15.5973 121.745 12.5033C121.745 9.40922 124.087 7.08029 127.198 7.08029C127.907 7.06939 128.61 7.1976 129.269 7.45759C129.921 7.71933 130.515 8.10768 131.015 8.59998L131.286 7.29574L132.972 7.35039ZM130.847 12.5001C130.847 10.5485 129.427 9.13703 127.465 9.13703C127.031 9.13703 126.534 9.19062 126.154 9.35247C125.723 9.52237 125.332 9.78012 125.007 10.1092C124.681 10.4329 124.463 10.8112 124.246 11.1969C124.083 11.6289 123.975 12.0608 124.034 12.5001C124.026 12.9439 124.097 13.3857 124.246 13.8043C124.404 14.2242 124.666 14.5981 125.007 14.8921C125.332 15.2158 125.712 15.4323 126.154 15.6477C126.588 15.8096 127.024 15.9178 127.465 15.8642C129.374 15.8642 130.847 14.4517 130.847 12.5012V12.5001Z" fill="#1F0742"/>
<path d="M135.043 4.37191L137.168 3.61627V17.6645H135.043V4.37191Z" fill="#1F0742"/>
<path d="M149.664 13.219H141.21C141.482 14.9005 142.69 15.9346 144.429 15.9346C145.686 15.9346 146.664 15.3398 147.214 14.4139H149.448C148.633 16.582 146.718 17.9399 144.376 17.9399C141.32 17.9399 139.031 15.6099 139.031 12.5169C139.031 9.42393 141.32 7.0929 144.376 7.0929C147.595 7.0929 149.721 9.53113 149.721 12.5169C149.731 12.7524 149.712 12.9882 149.664 13.219ZM141.263 11.5374H147.592C147.213 9.96097 146.008 9.04559 144.423 9.04559C142.791 9.03192 141.59 9.96097 141.263 11.5311V11.5374Z" fill="#1F0742"/>
<path d="M150.75 14.4013H152.821C152.876 15.489 153.806 16.0828 155.055 16.0828C156.203 16.0828 157.072 15.5972 157.072 14.7249C157.072 13.7454 155.923 13.53 154.675 13.3135C152.93 13.0434 150.912 12.6115 150.912 10.2195C150.912 8.37608 152.549 7.07184 154.947 7.07184C157.344 7.07184 158.925 8.37608 158.983 10.3813H156.966C156.912 9.40182 156.151 8.86163 154.895 8.86163C153.693 8.86163 152.987 9.34822 152.987 10.1123C152.987 11.0371 154.08 11.2 155.329 11.4155C157.075 11.6856 159.255 12.0639 159.255 14.6177C159.255 16.623 157.564 17.9272 155.004 17.9272C152.495 17.9272 150.805 16.5231 150.75 14.4013Z" fill="#1F0742"/>
<path d="M60.5032 30.8415C60.5032 33.9355 58.2145 36.2655 55.1037 36.2655C53.8305 36.2659 52.5971 35.824 51.6168 35.0159V39.7368H49.4866V25.6886H50.9595L51.3399 26.9382C51.8438 26.4508 52.4361 26.0632 53.0855 25.7958C53.7255 25.5373 54.411 25.409 55.1016 25.4185C58.2589 25.4721 60.5032 27.7485 60.5032 30.8415ZM58.3699 30.8415C58.3699 28.8899 56.9497 27.4784 54.9886 27.4784C54.5543 27.4784 54.0577 27.532 53.6783 27.6939C53.2465 27.8635 52.8552 28.1213 52.5297 28.4505C52.2043 28.7742 51.9866 29.1526 51.77 29.5919C51.6073 30.0238 51.4984 30.4558 51.5523 30.8961C51.5457 31.34 51.6194 31.7814 51.77 32.1993C51.9408 32.6284 52.1995 33.0175 52.5297 33.3417C52.8552 33.6654 53.2356 33.8819 53.6783 34.0974C54.1126 34.2592 54.5469 34.3675 54.9886 34.3139C56.9043 34.2592 58.3699 32.7942 58.3699 30.8457V30.8415Z" fill="#1F0742"/>
<path d="M72.7604 25.6886V35.9954H71.0191L70.8014 34.7458C70.2975 35.2328 69.7052 35.6202 69.0558 35.8871C68.3972 36.1475 67.6934 36.2761 66.9848 36.2655C63.8751 36.2655 61.5325 33.9355 61.5325 30.8415C61.5325 27.7474 63.8751 25.4185 66.9848 25.4185C67.6933 25.408 68.397 25.5362 69.0558 25.7958C69.7084 26.0572 70.3018 26.4456 70.8014 26.9382L71.0698 25.6339L72.7604 25.6886ZM70.6355 30.8383C70.6355 28.8867 69.2164 27.4752 67.2542 27.4752C66.82 27.4752 66.3233 27.5288 65.944 27.6907C65.5256 27.8616 65.1377 28.0987 64.7954 28.3927C64.4618 28.7142 64.2026 29.104 64.0357 29.5351C63.873 29.9671 63.7641 30.399 63.818 30.8383C63.818 31.2703 63.873 31.7642 64.0357 32.1426C64.2058 32.5747 64.4654 32.9664 64.7975 33.2923C65.1232 33.6082 65.5156 33.848 65.9461 33.9944C66.3658 34.1458 66.8099 34.2192 67.2563 34.2109C69.1647 34.2645 70.6376 32.7994 70.6376 30.8478L70.6355 30.8383Z" fill="#1F0742"/>
<path d="M80.9472 25.6339V27.6402H79.7997C78.0034 27.6402 77.1306 28.6197 77.1306 30.5178V36.049H75.0056V25.7422H76.4849L76.8643 27.1536C77.6251 26.1741 78.6099 25.6886 80.0839 25.6886L80.9472 25.6339Z" fill="#1F0742"/>
<path d="M89.1849 34.09V36.0416H87.6C85.3123 36.0416 83.8922 34.6302 83.8922 32.3538V27.5194H82.0388V27.0916L85.6927 23.2956H86.0742V25.6791H89.1849V27.5236H86.0742V32.1909C86.0742 33.4405 86.78 34.089 88.0364 34.089L89.1849 34.09Z" fill="#1F0742"/>
<path d="M100.58 29.8084V36.049H98.4538V30.2445C98.4538 28.3465 97.6391 27.367 96.0573 27.367C94.4206 27.367 93.273 28.6712 93.273 30.5199V36.0511H91.146V25.7422H92.6253L93.0596 27.2135C93.8193 26.1794 95.1306 25.532 96.6585 25.532C99.0508 25.4721 100.58 27.2619 100.58 29.8084Z" fill="#1F0742"/>
<path d="M112.851 30.8961C112.86 31.1315 112.841 31.3671 112.796 31.5982H104.343C104.614 33.2797 105.817 34.3139 107.561 34.3139C108.819 34.3139 109.796 33.7201 110.347 32.7942H112.58C111.766 34.9612 109.85 36.3191 107.508 36.3191C104.453 36.3191 102.164 33.9891 102.164 30.8961C102.164 27.8031 104.453 25.4721 107.508 25.4721C110.784 25.4721 112.907 27.8557 112.853 30.8961H112.851ZM104.398 29.862H110.727C110.348 28.2855 109.142 27.3701 107.557 27.3701C105.972 27.3701 104.773 28.3423 104.392 29.862H104.398Z" fill="#1F0742"/>
<path d="M120.538 25.6339V27.6402H119.389C117.593 27.6402 116.721 28.6197 116.721 30.5178V36.049H114.595V25.7422H116.069L116.45 27.1536C117.209 26.1741 118.195 25.6886 119.668 25.6886L120.538 25.6339Z" fill="#1F0742"/>
<path d="M141.644 29.8084V36.049H139.519V30.2445C139.519 28.3465 138.704 27.367 137.121 27.367C135.484 27.367 134.337 28.6712 134.337 30.5199V36.0511H132.212V22.7648L134.337 22.0081V26.8919C134.788 26.4547 135.303 26.088 135.865 25.8042C136.462 25.5877 137.067 25.4258 137.719 25.4805C140.116 25.4721 141.644 27.1536 141.644 29.8084Z" fill="#1F0742"/>
<path d="M143.986 25.6886H146.111V35.9954H143.986V25.6886Z" fill="#1F0742"/>
<path d="M159.477 30.8415C159.477 33.9355 157.188 36.2655 154.077 36.2655C152.804 36.266 151.571 35.824 150.59 35.0159V39.7369H148.465V25.6886H149.938L150.319 26.9382C150.823 26.4511 151.415 26.0634 152.064 25.7958C152.705 25.5413 153.39 25.4131 154.08 25.4185C157.187 25.4721 159.477 27.7485 159.477 30.8415ZM157.297 30.8415C157.297 28.8899 155.877 27.4784 153.916 27.4784C153.481 27.4784 152.985 27.532 152.605 27.6939C152.173 27.8635 151.782 28.1213 151.457 28.4506C151.131 28.7743 150.914 29.1526 150.697 29.5919C150.534 30.0238 150.425 30.4558 150.479 30.8961C150.473 31.34 150.546 31.7814 150.697 32.1993C150.868 32.6285 151.127 33.0175 151.457 33.3417C151.782 33.6654 152.163 33.8819 152.605 34.0974C153.04 34.2592 153.474 34.3675 153.916 34.3139C155.877 34.2592 157.293 32.7942 157.293 30.8415H157.297Z" fill="#1F0742"/>
<path d="M145.08 24.438C145.894 24.438 146.554 23.7906 146.554 23.0265C146.566 22.7331 146.489 22.4427 146.334 22.1929C146.179 21.943 145.952 21.7452 145.682 21.6247C145.413 21.5043 145.114 21.4667 144.823 21.517C144.532 21.5672 144.263 21.703 144.05 21.9067C143.837 22.1104 143.69 22.3728 143.629 22.6601C143.567 22.9473 143.594 23.2464 143.704 23.5186C143.815 23.7909 144.005 24.024 144.251 24.1878C144.496 24.3517 144.784 24.4388 145.08 24.438Z" fill="#1F0742"/>
</svg>
