<svg width="22" height="19" viewBox="0 0 22 19" fill="none" xmlns="http://www.w3.org/2000/svg">
<path d="M19.5 0.666626H2.16667C1.59203 0.666626 1.04093 0.907581 0.634602 1.33648C0.228273 1.76539 0 2.3471 0 2.95366V16.6759C0 17.2824 0.228273 17.8642 0.634602 18.2931C1.04093 18.722 1.59203 18.9629 2.16667 18.9629H19.5C20.0746 18.9629 20.6257 18.722 21.0321 18.2931C21.4384 17.8642 21.6667 17.2824 21.6667 16.6759V2.95366C21.6667 2.3471 21.4384 1.76539 21.0321 1.33648C20.6257 0.907581 20.0746 0.666626 19.5 0.666626ZM7.58333 14.3888C7.58333 14.6921 7.4692 14.983 7.26603 15.1974C7.06287 15.4119 6.78732 15.5324 6.5 15.5324C6.21268 15.5324 5.93713 15.4119 5.73397 15.1974C5.5308 14.983 5.41667 14.6921 5.41667 14.3888V9.81477C5.41667 9.51149 5.5308 9.22063 5.73397 9.00618C5.93713 8.79173 6.21268 8.67125 6.5 8.67125C6.78732 8.67125 7.06287 8.79173 7.26603 9.00618C7.4692 9.22063 7.58333 9.51149 7.58333 9.81477V14.3888ZM11.9167 14.3888C11.9167 14.6921 11.8025 14.983 11.5994 15.1974C11.3962 15.4119 11.1207 15.5324 10.8333 15.5324C10.546 15.5324 10.2705 15.4119 10.0673 15.1974C9.86414 14.983 9.75 14.6921 9.75 14.3888V7.52774C9.75 7.22446 9.86414 6.9336 10.0673 6.71915C10.2705 6.5047 10.546 6.38422 10.8333 6.38422C11.1207 6.38422 11.3962 6.5047 11.5994 6.71915C11.8025 6.9336 11.9167 7.22446 11.9167 7.52774V14.3888ZM16.25 14.3888C16.25 14.6921 16.1359 14.983 15.9327 15.1974C15.7295 15.4119 15.454 15.5324 15.1667 15.5324C14.8793 15.5324 14.6038 15.4119 14.4006 15.1974C14.1975 14.983 14.0833 14.6921 14.0833 14.3888V5.2407C14.0833 4.93742 14.1975 4.64656 14.4006 4.43211C14.6038 4.21766 14.8793 4.09718 15.1667 4.09718C15.454 4.09718 15.7295 4.21766 15.9327 4.43211C16.1359 4.64656 16.25 4.93742 16.25 5.2407V14.3888Z" fill="#A717FF"/>
</svg>
