<svg width="21" height="22" viewBox="0 0 21 22" fill="none" xmlns="http://www.w3.org/2000/svg">
<path d="M12.0028 4.83354C12.0028 4.88948 12.0168 4.93909 12.0188 4.99715L6.8408 8.19337C6.2828 7.59918 5.57013 7.19337 4.79326 7.02745C4.01638 6.86153 3.21032 6.94298 2.47737 7.26146C1.74442 7.57994 1.11764 8.12109 0.676559 8.81623C0.235481 9.51137 -4.72415e-07 10.3292 -4.37769e-07 11.1658C-4.03122e-07 12.0025 0.235481 12.8203 0.676559 13.5154C1.11764 14.2105 1.74442 14.7517 2.47737 15.0702C3.21032 15.3887 4.01638 15.4701 4.79326 15.3042C5.57013 15.1383 6.2828 14.7325 6.8408 14.1383L12.0198 17.325C12.0168 17.3851 12.0028 17.44 12.0028 17.5002C12.0002 18.2905 12.2078 19.0658 12.6019 19.7377C12.9961 20.4096 13.561 20.9513 14.2324 21.3011C14.9038 21.6509 15.6547 21.7948 16.3998 21.7163C17.1448 21.6379 17.854 21.3403 18.4467 20.8574C19.0394 20.3746 19.4919 19.7258 19.7525 18.9849C20.0132 18.244 20.0716 17.4408 19.9212 16.6666C19.7708 15.8924 19.4175 15.1783 18.9015 14.6055C18.3856 14.0328 17.7278 13.6244 17.0028 13.4268L17.0028 8.90693C17.7257 8.70833 18.3813 8.29975 18.8952 7.72758C19.4091 7.15542 19.7607 6.4426 19.9101 5.67008C20.0595 4.89756 20.0006 4.09631 19.7403 3.35732C19.4799 2.61833 19.0284 1.97122 18.4371 1.4895C17.8458 1.00777 17.1383 0.710717 16.3951 0.632091C15.6519 0.553462 14.9027 0.696405 14.2325 1.04468C13.5624 1.39296 12.9982 1.93262 12.6041 2.60236C12.21 3.2721 12.0016 4.04509 12.0028 4.83354ZM15.0028 8.90693L15.0028 13.4268C14.0195 13.6949 13.1699 14.3482 12.6268 15.254L7.8368 12.3058C8.05881 11.5635 8.05881 10.7671 7.8368 10.0248L12.6228 7.0692C13.1646 7.98017 14.0162 8.63772 15.0028 8.90693Z" fill="#FFB800"/>
</svg>
