<svg width="22" height="22" viewBox="0 0 22 22" fill="none" xmlns="http://www.w3.org/2000/svg">
<path d="M20.7099 15.2899L15.9099 10.4999L19.2899 7.11994C19.8517 6.55744 20.1673 5.79494 20.1673 4.99994C20.1673 4.20494 19.8517 3.44244 19.2899 2.87994L19.1199 2.70994C18.5574 2.14814 17.7949 1.83258 16.9999 1.83258C16.2049 1.83258 15.4424 2.14814 14.8799 2.70994L11.4999 6.08994L6.70994 1.28994C6.61698 1.19621 6.50637 1.12182 6.38452 1.07105C6.26266 1.02028 6.13195 0.994141 5.99994 0.994141C5.86793 0.994141 5.73722 1.02028 5.61536 1.07105C5.4935 1.12182 5.3829 1.19621 5.28994 1.28994L1.28994 5.28994C1.19621 5.3829 1.12182 5.4935 1.07105 5.61536C1.02028 5.73722 0.994141 5.86793 0.994141 5.99994C0.994141 6.13195 1.02028 6.26266 1.07105 6.38452C1.12182 6.50637 1.19621 6.61698 1.28994 6.70994L6.08994 11.4999L3.28994 14.2899C3.16203 14.42 3.07212 14.5825 3.02994 14.7599L2.02994 18.7599C1.98233 18.929 1.98008 19.1076 2.02341 19.2778C2.06674 19.448 2.15413 19.6037 2.27678 19.7294C2.39943 19.8551 2.55302 19.9463 2.7221 19.9938C2.89118 20.0413 3.06978 20.0434 3.23994 19.9999L7.23994 18.9999C7.41738 18.9578 7.57991 18.8678 7.70994 18.7399L10.4999 15.9399L15.2899 20.7399C15.3829 20.8337 15.4935 20.9081 15.6154 20.9588C15.7372 21.0096 15.8679 21.0357 15.9999 21.0357C16.132 21.0357 16.2627 21.0096 16.3845 20.9588C16.5064 20.9081 16.617 20.8337 16.7099 20.7399L20.7099 16.7399C20.8037 16.647 20.8781 16.5364 20.9288 16.4145C20.9796 16.2927 21.0057 16.162 21.0057 16.0299C21.0057 15.8979 20.9796 15.7672 20.9288 15.6454C20.8781 15.5235 20.8037 15.4129 20.7099 15.3199V15.2899ZM16.2899 4.11994C16.3829 4.02621 16.4935 3.95182 16.6154 3.90105C16.7372 3.85028 16.8679 3.82414 16.9999 3.82414C17.132 3.82414 17.2627 3.85028 17.3845 3.90105C17.5064 3.95182 17.617 4.02621 17.7099 4.11994L17.8799 4.28994C17.9737 4.3829 18.0481 4.4935 18.0988 4.61536C18.1496 4.73722 18.1757 4.86793 18.1757 4.99994C18.1757 5.13195 18.1496 5.26266 18.0988 5.38452C18.0481 5.50637 17.9737 5.61698 17.8799 5.70994L16.9999 6.58994L15.4099 4.99994L16.2899 4.11994ZM13.9999 6.40994L15.5899 7.99994L14.4999 9.08994L12.9099 7.49994L13.9999 6.40994ZM6.48994 17.0999L4.36994 17.6299L4.89994 15.5099L7.49994 12.9099L9.08994 14.4999L6.48994 17.0999ZM15.9999 18.5899L3.40994 5.99994L5.99994 3.40994L7.08994 4.49994L6.28994 5.28994C6.1967 5.38318 6.12274 5.49387 6.07228 5.61569C6.02182 5.73751 5.99585 5.86808 5.99585 5.99994C5.99585 6.1318 6.02182 6.26237 6.07228 6.38419C6.12274 6.50601 6.1967 6.6167 6.28994 6.70994C6.38318 6.80318 6.49387 6.87714 6.61569 6.9276C6.73751 6.97806 6.86808 7.00403 6.99994 7.00403C7.1318 7.00403 7.26237 6.97806 7.38419 6.9276C7.50601 6.87714 7.6167 6.80318 7.70994 6.70994L8.49994 5.90994L10.0899 7.49994L9.28994 8.28994C9.10163 8.47824 8.99585 8.73364 8.99585 8.99994C8.99585 9.26624 9.10163 9.52164 9.28994 9.70994C9.47824 9.89824 9.73364 10.004 9.99994 10.004C10.2662 10.004 10.5216 9.89824 10.7099 9.70994L11.4999 8.90994L13.0899 10.4999L12.2899 11.2899C12.1016 11.4782 11.9958 11.7336 11.9958 11.9999C11.9958 12.2662 12.1016 12.5216 12.2899 12.7099C12.4782 12.8982 12.7336 13.004 12.9999 13.004C13.2662 13.004 13.5216 12.8982 13.7099 12.7099L14.4999 11.9099L16.0899 13.4999L15.2899 14.2899C15.1016 14.4782 14.9958 14.7336 14.9958 14.9999C14.9958 15.2662 15.1016 15.5216 15.2899 15.7099C15.4782 15.8982 15.7336 16.004 15.9999 16.004C16.2662 16.004 16.5216 15.8982 16.7099 15.7099L17.4999 14.9099L18.5899 15.9999L15.9999 18.5899Z" fill="#D1CCFF"/>
</svg>
