<svg width="22" height="24" viewBox="0 0 22 24" fill="none" xmlns="http://www.w3.org/2000/svg">
<path d="M9.51448 6.311C10.808 6.00951 12.1615 6.22706 13.3114 6.92125C14.4612 7.61545 15.3251 8.73658 15.7348 10.0663C16.1444 11.396 16.0705 12.8391 15.5274 14.1144C14.9843 15.3897 14.011 16.406 12.7969 16.9653V20.8173C12.7969 21.4143 12.5722 21.987 12.1722 22.4092C11.7722 22.8314 11.2297 23.0686 10.6641 23.0686C10.0984 23.0686 9.55592 22.8314 9.15594 22.4092C8.75596 21.987 8.53125 21.4143 8.53125 20.8173V16.9653C7.49944 16.49 6.63665 15.6821 6.06646 14.6574C5.49628 13.6328 5.24798 12.4439 5.35713 11.2612C5.46627 10.0785 5.92727 8.96256 6.67408 8.07333C7.42088 7.1841 8.41516 6.56719 9.51448 6.311ZM11.7305 2.80684V1.68119C11.7305 1.38265 11.6181 1.09634 11.4181 0.885237C11.2181 0.674137 10.9469 0.555542 10.6641 0.555542C10.3812 0.555542 10.11 0.674137 9.91 0.885237C9.71001 1.09634 9.59766 1.38265 9.59766 1.68119V2.80684C9.59766 3.10539 9.71001 3.3917 9.91 3.6028C10.11 3.8139 10.3812 3.93249 10.6641 3.93249C10.9469 3.93249 11.2181 3.8139 11.4181 3.6028C11.6181 3.3917 11.7305 3.10539 11.7305 2.80684ZM17.8165 4.26231C17.6165 4.05128 17.3453 3.93274 17.0625 3.93274C16.7797 3.93274 16.5085 4.05128 16.3085 4.26231L15.5546 5.05815C15.4527 5.16198 15.3715 5.28619 15.3156 5.42353C15.2597 5.56086 15.2303 5.70857 15.2291 5.85803C15.2279 6.0075 15.2548 6.15572 15.3085 6.29406C15.3621 6.4324 15.4413 6.55808 15.5414 6.66377C15.6415 6.76946 15.7606 6.85304 15.8916 6.90964C16.0227 6.96624 16.1631 6.99472 16.3047 6.99342C16.4463 6.99212 16.5862 6.96107 16.7163 6.90208C16.8465 6.84308 16.9641 6.75733 17.0625 6.64982L17.8165 5.85398C18.0164 5.64289 18.1287 5.35663 18.1287 5.05815C18.1287 4.75966 18.0164 4.4734 17.8165 4.26231ZM3.51168 19.3618C3.71166 19.5728 3.98285 19.6914 4.26562 19.6914C4.5484 19.6914 4.81959 19.5728 5.01957 19.3618L5.77352 18.566C5.96778 18.3537 6.07527 18.0693 6.07284 17.7742C6.07041 17.479 5.95825 17.1967 5.76053 16.988C5.56281 16.7793 5.29534 16.6609 5.01574 16.6583C4.73613 16.6558 4.46675 16.7692 4.26562 16.9743L3.51168 17.7701C3.31176 17.9812 3.19945 18.2675 3.19945 18.566C3.19945 18.8644 3.31176 19.1507 3.51168 19.3618ZM20.2617 10.6864H19.1953C18.9125 10.6864 18.6412 10.805 18.4412 11.0161C18.2413 11.2272 18.1289 11.5135 18.1289 11.8121C18.1289 12.1106 18.2413 12.3969 18.4412 12.608C18.6412 12.8191 18.9125 12.9377 19.1953 12.9377H20.2617C20.5445 12.9377 20.8158 12.8191 21.0158 12.608C21.2158 12.3969 21.3281 12.1106 21.3281 11.8121C21.3281 11.5135 21.2158 11.2272 21.0158 11.0161C20.8158 10.805 20.5445 10.6864 20.2617 10.6864ZM2.13281 10.6864H1.06641C0.783578 10.6864 0.512333 10.805 0.312343 11.0161C0.112353 11.2272 0 11.5135 0 11.8121C0 12.1106 0.112353 12.3969 0.312343 12.608C0.512333 12.8191 0.783578 12.9377 1.06641 12.9377H2.13281C2.41564 12.9377 2.68689 12.8191 2.88688 12.608C3.08687 12.3969 3.19922 12.1106 3.19922 11.8121C3.19922 11.5135 3.08687 11.2272 2.88688 11.0161C2.68689 10.805 2.41564 10.6864 2.13281 10.6864ZM17.0625 16.9743C16.8614 16.7692 16.592 16.6558 16.3124 16.6583C16.0328 16.6609 15.7653 16.7793 15.5676 16.988C15.3699 17.1967 15.2577 17.479 15.2553 17.7742C15.2529 18.0693 15.3603 18.3537 15.5546 18.566L16.3085 19.3618C16.5097 19.5668 16.7791 19.6803 17.0587 19.6777C17.3383 19.6752 17.6057 19.5568 17.8035 19.3481C18.0012 19.1394 18.1133 18.857 18.1158 18.5619C18.1182 18.2668 18.0107 17.9824 17.8165 17.7701L17.0625 16.9743ZM5.01957 4.26231C4.81845 4.05726 4.54907 3.9438 4.26946 3.94637C3.98985 3.94893 3.72239 4.06732 3.52467 4.27602C3.32695 4.48473 3.21479 4.76705 3.21236 5.0622C3.20993 5.35734 3.31742 5.64168 3.51168 5.85398L4.26562 6.64982C4.46675 6.85486 4.73613 6.96832 5.01574 6.96576C5.29534 6.96319 5.56281 6.84481 5.76053 6.6361C5.95825 6.4274 6.07041 6.14507 6.07284 5.84993C6.07527 5.55479 5.96778 5.27045 5.77352 5.05815L5.01957 4.26231Z" fill="#00EAC5"/>
</svg>
