<svg width="20" height="22" viewBox="0 0 20 22" fill="none" xmlns="http://www.w3.org/2000/svg">
<path d="M0 18.5555C0 18.2756 0.105357 18.0071 0.292893 17.8091C0.48043 17.6112 0.734784 17.5 1 17.5H6.184C6.4199 16.7957 6.88407 16.2021 7.49448 15.8241C8.10489 15.4462 8.82224 15.3082 9.51973 15.4345C10.2172 15.5608 10.85 15.9433 11.3061 16.5144C11.7622 17.0856 12.0124 17.8085 12.0124 18.5555C12.0124 19.3025 11.7622 20.0255 11.3061 20.5966C10.85 21.1677 10.2172 21.5503 9.51973 21.6766C8.82224 21.8029 8.10489 21.6649 7.49448 21.2869C6.88407 20.909 6.4199 20.3154 6.184 19.6111H1C0.734784 19.6111 0.48043 19.4999 0.292893 19.3019C0.105357 19.104 0 18.8355 0 18.5555ZM19 2.7222H17C16.7348 2.7222 16.4804 2.83341 16.2929 3.03137C16.1054 3.22932 16 3.49781 16 3.77776C16 4.05771 16.1054 4.32619 16.2929 4.52415C16.4804 4.7221 16.7348 4.83331 17 4.83331H19C19.2652 4.83331 19.5196 4.7221 19.7071 4.52415C19.8946 4.32619 20 4.05771 20 3.77776C20 3.49781 19.8946 3.22932 19.7071 3.03137C19.5196 2.83341 19.2652 2.7222 19 2.7222ZM1 4.83331H8.183C8.4189 5.53759 8.88307 6.13118 9.49348 6.50915C10.1039 6.88712 10.8212 7.02514 11.5187 6.89882C12.2162 6.7725 12.849 6.38997 13.3051 5.81884C13.7612 5.24771 14.0114 4.52476 14.0114 3.77776C14.0114 3.03075 13.7612 2.3078 13.3051 1.73667C12.849 1.16554 12.2162 0.783015 11.5187 0.656695C10.8212 0.530375 10.1039 0.668398 9.49348 1.04637C8.88307 1.42434 8.4189 2.01792 8.183 2.7222H1C0.734784 2.7222 0.48043 2.83341 0.292893 3.03137C0.105357 3.22932 0 3.49781 0 3.77776C0 4.05771 0.105357 4.32619 0.292893 4.52415C0.48043 4.7221 0.734784 4.83331 1 4.83331ZM1 12.2222H4.184C4.4199 12.9265 4.88407 13.5201 5.49448 13.898C6.10489 14.276 6.82224 14.414 7.51973 14.2877C8.21723 14.1614 8.84996 13.7789 9.30611 13.2077C9.76225 12.6366 10.0124 11.9136 10.0124 11.1666C10.0124 10.4196 9.76225 9.69669 9.30611 9.12556C8.84996 8.55443 8.21723 8.1719 7.51973 8.04558C6.82224 7.91926 6.10489 8.05729 5.49448 8.43526C4.88407 8.81323 4.4199 9.40681 4.184 10.1111H1C0.734784 10.1111 0.48043 10.2223 0.292893 10.4203C0.105357 10.6182 0 10.8867 0 11.1666C0 11.4466 0.105357 11.7151 0.292893 11.913C0.48043 12.111 0.734784 12.2222 1 12.2222ZM19 10.1111H13C12.7348 10.1111 12.4804 10.2223 12.2929 10.4203C12.1054 10.6182 12 10.8867 12 11.1666C12 11.4466 12.1054 11.7151 12.2929 11.913C12.4804 12.111 12.7348 12.2222 13 12.2222H19C19.2652 12.2222 19.5196 12.111 19.7071 11.913C19.8946 11.7151 20 11.4466 20 11.1666C20 10.8867 19.8946 10.6182 19.7071 10.4203C19.5196 10.2223 19.2652 10.1111 19 10.1111ZM19 17.5H15C14.7348 17.5 14.4804 17.6112 14.2929 17.8091C14.1054 18.0071 14 18.2756 14 18.5555C14 18.8355 14.1054 19.104 14.2929 19.3019C14.4804 19.4999 14.7348 19.6111 15 19.6111H19C19.2652 19.6111 19.5196 19.4999 19.7071 19.3019C19.8946 19.104 20 18.8355 20 18.5555C20 18.2756 19.8946 18.0071 19.7071 17.8091C19.5196 17.6112 19.2652 17.5 19 17.5Z" fill="#6C30EB"/>
</svg>
